<?xml version="1.0" encoding="UTF-8" standalone="no"?>
<!-- Created with Inkscape (http://www.inkscape.org/) -->

<svg
   xmlns:dc="http://purl.org/dc/elements/1.1/"
   xmlns:cc="http://creativecommons.org/ns#"
   xmlns:rdf="http://www.w3.org/1999/02/22-rdf-syntax-ns#"
   xmlns:svg="http://www.w3.org/2000/svg"
   xmlns="http://www.w3.org/2000/svg"
   xmlns:sodipodi="http://sodipodi.sourceforge.net/DTD/sodipodi-0.dtd"
   xmlns:inkscape="http://www.inkscape.org/namespaces/inkscape"
   width="40"
   height="40"
   viewBox="0 0 40.000001 40.000002"
   id="svg2"
   version="1.1"
   inkscape:version="0.91 r13725"
   sodipodi:docname="2-ravens.svg">
  <defs
     id="defs4" />
  <sodipodi:namedview
     id="base"
     pagecolor="#ffffff"
     bordercolor="#666666"
     borderopacity="1.0"
     inkscape:pageopacity="0.0"
     inkscape:pageshadow="2"
     inkscape:zoom="11.2"
     inkscape:cx="18.238318"
     inkscape:cy="22.480999"
     inkscape:document-units="px"
     inkscape:current-layer="layer1"
     showgrid="false"
     fit-margin-top="0"
     fit-margin-left="0"
     fit-margin-right="0"
     fit-margin-bottom="0"
     units="px"
     inkscape:window-width="1916"
     inkscape:window-height="1061"
     inkscape:window-x="0"
     inkscape:window-y="465"
     inkscape:window-maximized="0" />
  <metadata
     id="metadata7">
    <rdf:RDF>
      <cc:Work
         rdf:about="">
        <dc:format>image/svg+xml</dc:format>
        <dc:type
           rdf:resource="http://purl.org/dc/dcmitype/StillImage" />
        <dc:title />
      </cc:Work>
    </rdf:RDF>
  </metadata>
  <g
     inkscape:label="Layer 1"
     inkscape:groupmode="layer"
     id="layer1"
     transform="translate(-48.719624,-601.36585)">
    <path
       sodipodi:nodetypes="ccsssssscsssssscsssssssssssssssssssssssssssssssssssssssssssscscscsscssssssssssssssssscsssscssssscsssssssssssssssssssssssccc"
       inkscape:connector-curvature="0"
       id="path4213"
       d="m 50.709203,633.80795 c 0.03465,-0.17326 0.313616,-0.83885 0.619917,-1.47909 0.306302,-0.64025 0.534333,-1.18666 0.506737,-1.21426 -0.0276,-0.0276 -0.334286,0.31154 -0.681532,0.75362 -0.618096,0.78692 -1.371143,1.46609 -1.625555,1.46609 -0.382414,0 -0.225125,-0.36602 0.847302,-1.97168 0.870893,-1.30393 0.889808,-1.39263 0.152996,-0.71748 -0.702014,0.64327 -1.439094,1.0708 -1.684047,0.9768 -0.263851,-0.10125 -0.301922,-0.0509 1.864606,-2.46439 0.373768,-0.41637 0.657781,-0.77884 0.631141,-0.80548 -0.02664,-0.0266 -0.255059,0.067 -0.507598,0.2082 -0.471653,0.26361 -1.341102,0.3804 -1.409053,0.18928 -0.0194,-0.0545 0.175551,-0.22556 0.433211,-0.38002 0.711548,-0.42655 1.996524,-1.3656 1.996524,-1.45904 0,-0.0455 -0.15527,-0.0827 -0.345044,-0.0827 -0.449901,0 -0.439191,-0.12464 0.02465,-0.28683 0.860948,-0.30106 2.575829,-1.4559 2.584596,-1.74053 0.0018,-0.0577 -0.155434,-0.18064 -0.349359,-0.27311 -0.193924,-0.0925 -0.336399,-0.22269 -0.316609,-0.28937 0.03639,-0.1226 1.406238,-0.85229 2.493004,-1.32797 1.325023,-0.57997 3.927696,-2.78305 4.048486,-3.42692 0.157051,-0.83715 -1.51672,-1.9551 -3.251674,-2.17187 -0.366353,-0.0458 -0.550353,-0.11385 -0.550353,-0.20362 0,-0.13779 0.870569,-0.6311 1.113731,-0.6311 0.07394,0 0.352686,-0.11575 0.619427,-0.25723 0.718307,-0.38099 1.899766,-0.43304 3.099621,-0.13657 0.870638,0.21513 0.907457,0.21649 1.282149,0.0475 0.212172,-0.0957 0.451004,-0.24604 0.530736,-0.33414 0.171608,-0.18963 0.950353,-1.99666 1.193749,-2.77003 0.09385,-0.29821 0.253344,-0.76402 0.354421,-1.03513 0.101078,-0.2711 0.231701,-0.75909 0.290276,-1.08442 0.141382,-0.78525 0.544089,-2.06193 0.824063,-2.61248 0.270191,-0.53131 0.556695,-0.62562 0.731966,-0.24094 0.102325,0.22458 0.14085,0.24281 0.276038,0.13061 0.142209,-0.11802 1.100356,-2.03413 1.41141,-2.82254 0.14798,-0.37508 0.254039,-0.4069 0.334221,-0.10028 0.08084,0.30915 0.151382,0.21553 0.981179,-1.30228 0.397192,-0.72652 0.781587,-1.34075 0.854212,-1.36496 0.236548,-0.0788 0.04513,1.00123 -0.332057,1.87367 -0.192306,0.4448 -0.33443,0.82394 -0.315832,0.84254 0.0186,0.0186 0.252706,-0.22288 0.520239,-0.53662 2.278129,-2.67159 2.826055,-3.28149 2.948057,-3.28149 0.401483,0 -0.152079,1.28528 -1.053635,2.44636 -0.281451,0.36247 -0.554845,0.71449 -0.607541,0.78227 -0.28397,0.36523 0.208566,0.009 1.211362,-0.87631 2.008022,-1.77262 2.364575,-2.0081 2.364575,-1.56169 0,0.2762 -0.415245,0.91214 -1.109133,1.69862 -0.322905,0.36599 -0.557916,0.66544 -0.522246,0.66544 0.03567,0 0.317506,-0.17028 0.626302,-0.37839 1.028238,-0.69298 1.503664,-0.93697 1.612899,-0.82774 0.174531,0.17454 -0.01109,0.50681 -0.678183,1.21396 -0.515784,0.54675 -0.603234,0.68226 -0.440318,0.68226 0.34912,0 0.336668,0.1716 -0.0697,0.96046 -0.272529,0.52905 -0.378022,0.84289 -0.342282,1.01828 0.02842,0.13943 -0.03927,0.53052 -0.15042,0.86909 -0.164782,0.50195 -0.179931,0.65155 -0.08207,0.81046 0.100928,0.16389 0.07719,0.27209 -0.14927,0.68039 -0.19894,0.35868 -0.2536,0.56392 -0.209247,0.78568 0.04559,0.22796 -0.0018,0.38936 -0.196833,0.67084 -0.169321,0.24433 -0.252439,0.48848 -0.243873,0.71633 0.0071,0.19013 -0.03426,0.43398 -0.09202,0.5419 -0.212284,0.39666 -0.513378,1.41756 -0.459493,1.55797 0.03054,0.0796 -0.05859,0.3859 -0.198058,0.68071 -0.139466,0.29481 -0.253869,0.59828 -0.254225,0.67438 -3.89e-4,0.0761 -0.08879,0.27145 -0.196518,0.43411 -0.107729,0.16267 -0.196162,0.39849 -0.196519,0.52405 -7.92e-4,0.2722 -0.174523,0.6282 -0.360085,0.7378 -0.07342,0.0434 -0.133484,0.19045 -0.133484,0.32687 0,0.49012 -0.439703,1.01729 -0.852063,1.02157 -0.252814,0.003 -0.345499,0.20052 -0.270211,0.57697 0.03068,0.15339 -0.01224,0.43868 -0.09623,0.63971 -0.185057,0.44291 -0.169712,0.44559 0.887914,0.15544 0.988368,-0.27116 2.002518,-0.23474 2.320585,0.0833 0.187969,0.18796 0.201502,0.25666 0.109576,0.55618 -0.09633,0.31387 -0.08171,0.36393 0.179367,0.61405 0.316147,0.30289 0.348069,0.48782 0.133236,0.77185 -0.185493,0.24524 -0.184302,0.49104 0.0031,0.6466 0.196416,0.16301 0.187015,0.50733 -0.02389,0.87481 -0.163298,0.28453 -0.163298,0.31361 0,0.59005 0.220091,0.37259 0.216147,0.46334 -0.03549,0.81673 -0.15732,0.22094 -0.191989,0.37242 -0.143899,0.62877 0.04475,0.23854 0.01356,0.4137 -0.106235,0.59653 -0.149032,0.22745 -0.215243,0.25153 -0.54619,0.19861 -0.42677,-0.0683 -0.427913,-0.0656 -0.224065,0.51973 0.215732,0.61946 -3e-5,1.0983 -0.494883,1.0983 -0.157992,0 -0.293223,0.1077 -0.433262,0.34505 -0.15455,0.26194 -0.269675,0.3454 -0.47801,0.34655 -0.330754,0.002 -0.422102,0.0615 -0.656146,0.42888 -0.168246,0.26408 -0.210453,0.27847 -0.64678,0.22059 -0.390853,-0.0519 -0.495994,-0.0297 -0.646327,0.13647 -0.239128,0.26423 -0.570312,0.25051 -0.90515,-0.0375 l -0.274245,-0.23589 -0.164843,0.27106 c -0.262236,0.43122 -0.551983,0.44489 -0.951955,0.0449 -0.232288,-0.23228 -0.400211,-0.3241 -0.522039,-0.28543 -0.251235,0.0797 -0.550125,-0.25054 -0.688862,-0.7612 -0.06338,-0.2333 -0.10942,-0.90322 -0.102305,-1.48871 l 0.01294,-1.06452 -0.371169,0.0655 c -0.486025,0.0858 -0.657847,0.26164 -0.672669,0.68843 -0.01664,0.47929 -0.328992,0.87434 -0.722132,0.91333 -0.258762,0.0257 -0.339992,0.096 -0.461407,0.39943 -0.08707,0.21761 -0.277261,0.44318 -0.464875,0.55136 -0.174635,0.10069 -0.439911,0.32787 -0.589504,0.50483 -0.149592,0.17697 -0.397828,0.3494 -0.551637,0.38318 -0.153808,0.0338 -0.376555,0.19249 -0.494991,0.35268 -0.168937,0.2285 -0.291563,0.29127 -0.569063,0.29127 -0.241332,0 -0.457039,0.0861 -0.67888,0.2711 -0.497419,0.41473 -1.215034,0.83354 -1.318587,0.76954 -0.05097,-0.0315 -0.301664,0.12362 -0.557106,0.3447 -0.41266,0.35715 -0.504348,0.39523 -0.822364,0.3415 -0.311358,-0.0526 -0.395976,-0.0207 -0.650422,0.24483 -0.259792,0.27117 -0.335036,0.29812 -0.672887,0.24104 -0.324915,-0.0549 -0.442514,-0.0197 -0.806414,0.24169 -0.234315,0.16827 -0.492791,0.30595 -0.574392,0.30595 -0.0816,0 -0.241608,-0.15087 -0.355568,-0.33527 -0.166682,-0.26969 -0.383162,-0.45341 -0.53428,-0.45341 -0.01055,0 -0.0038,0.16636 0.01504,0.36969 0.03103,0.33514 -0.0073,0.40425 -0.410507,0.73938 -0.53494,0.44467 -0.752229,0.47476 -0.752229,0.10414 0,-0.24453 -0.05266,-0.20943 -0.665582,0.44363 -0.736856,0.78512 -1.077834,0.92339 -0.971986,0.39415 z"
       style="fill:#000000" />
    <path
       sodipodi:nodetypes="csssscssssssssssssssssscsssssscssssssssssssssssssscscsssssssscscssssssscssssssssscsscssssscsssc"
       inkscape:connector-curvature="0"
       id="path4213-8"
       d="m 68.120204,641.26889 c 0,-0.0859 0.06753,-0.28683 0.150062,-0.44643 0.402377,-0.77811 0.375986,-0.82799 -0.184658,-0.34902 -0.519841,0.44412 -0.754075,0.55247 -0.754075,0.34883 0,-0.0567 0.307933,-0.53246 0.684297,-1.05735 0.376364,-0.5249 0.670424,-0.96823 0.653467,-0.98518 -0.01696,-0.017 -0.302075,0.15634 -0.633594,0.3851 -0.331518,0.22877 -0.631475,0.38723 -0.666569,0.35213 -0.03509,-0.0351 0.208265,-0.37069 0.540799,-0.74577 0.332534,-0.37508 0.604607,-0.74327 0.604607,-0.81821 0,-0.0749 0.877949,-1.00625 1.950997,-2.06958 1.925094,-1.90765 2.448321,-2.31173 3.224661,-2.49036 0.490998,-0.11298 1.664317,-0.57825 1.848449,-0.73299 0.250483,-0.2105 0.215026,-0.38729 -0.172521,-0.86024 -0.268792,-0.32803 -0.345045,-0.50972 -0.345045,-0.82215 0,-0.36853 0.02928,-0.4133 0.36087,-0.55185 0.351938,-0.14705 0.378645,-0.14211 1.079052,0.19934 1.321599,0.64428 1.668836,0.53579 3.014572,-0.94188 0.853767,-0.93746 1.243734,-1.20378 2.713261,-1.85294 0.607664,-0.26844 1.361831,-0.67086 1.675927,-0.89427 0.520015,-0.36987 0.573904,-0.38847 0.602589,-0.20796 0.01733,0.10903 0.06786,0.19824 0.112302,0.19824 0.04444,0 0.510748,-0.22562 1.036241,-0.50139 0.525491,-0.27576 0.979517,-0.4773 1.008946,-0.44788 0.122643,0.12265 -0.09638,0.38266 -0.570721,0.67753 -0.27792,0.17276 -0.454597,0.33102 -0.392614,0.35168 0.06198,0.0207 0.666158,-0.15093 1.342612,-0.38131 0.676455,-0.23038 1.257813,-0.39098 1.291907,-0.35689 0.114987,0.11499 -0.197311,0.37691 -0.847533,0.71083 -0.713449,0.36639 -0.660998,0.39402 0.437641,0.23062 0.411003,-0.0611 0.774038,-0.0844 0.806747,-0.0517 0.128179,0.12818 -0.217938,0.36948 -0.74555,0.51977 -0.726597,0.20697 -0.85052,0.33313 -0.327218,0.33313 0.539847,0 0.552661,0.22104 0.02832,0.48853 -0.295636,0.15083 -0.373998,0.24165 -0.335499,0.38888 0.03666,0.14019 -0.02876,0.23293 -0.242183,0.3433 -0.231806,0.11987 -0.282832,0.20134 -0.24618,0.39307 0.03362,0.17587 -0.01154,0.27279 -0.165495,0.35518 -0.145336,0.0778 -0.193302,0.17138 -0.152963,0.29847 0.04119,0.12977 -0.009,0.22012 -0.167784,0.30199 -0.124604,0.0643 -0.329584,0.24441 -0.455511,0.40034 -0.125928,0.15593 -0.287187,0.28351 -0.358353,0.28351 -0.07117,0 -0.208285,0.12041 -0.304711,0.26757 -0.301325,0.45988 -1.164703,1.30978 -1.330555,1.30978 -0.0871,0 -0.262552,0.1109 -0.389898,0.24646 -0.295053,0.31407 -0.499809,0.31088 -0.88564,-0.0138 -0.39716,-0.33419 -0.502661,-0.21511 -0.36999,0.41759 0.139118,0.66345 0.06699,0.82848 -0.362093,0.82848 -0.37187,0 -0.559474,0.16748 -0.34194,0.30526 0.07472,0.0473 0.593495,0.0867 1.152826,0.0876 1.061752,0.002 1.395762,0.0908 1.402139,0.37467 0.0021,0.093 0.146268,0.25935 0.320397,0.3697 0.254454,0.16127 0.317548,0.2677 0.321425,0.54221 0.0026,0.18786 0.0538,0.45247 0.113662,0.58803 0.08497,0.19242 0.07668,0.29713 -0.03783,0.47756 -0.08094,0.12753 -0.121442,0.33159 -0.09038,0.45535 0.03916,0.15604 -0.01827,0.30469 -0.188811,0.48871 -0.134802,0.14546 -0.245094,0.34976 -0.245094,0.45402 0,0.11091 -0.122708,0.25301 -0.295752,0.3425 -0.167733,0.0867 -0.295751,0.23228 -0.295751,0.33623 0,0.27057 -0.457033,0.53355 -0.805963,0.46377 -0.180445,-0.0361 -0.375081,-0.002 -0.516569,0.0908 -0.124866,0.0818 -0.297996,0.12152 -0.384732,0.0882 -0.08674,-0.0333 -0.312083,-0.01 -0.500775,0.0527 -0.277529,0.0916 -0.397842,0.0849 -0.629755,-0.035 -0.157676,-0.0815 -0.374919,-0.12518 -0.482761,-0.097 -0.121951,0.0319 -0.305696,-0.041 -0.486038,-0.19271 -0.159477,-0.13419 -0.399669,-0.25945 -0.53376,-0.27836 -0.168352,-0.0237 -0.304819,-0.15546 -0.440969,-0.42561 -0.108443,-0.21518 -0.296985,-0.47348 -0.418982,-0.57402 -0.291457,-0.24017 -0.280306,-0.43318 0.07651,-1.32427 0.164076,-0.40976 0.276896,-0.76645 0.250711,-0.79263 -0.115423,-0.11542 -0.351863,0.0906 -0.351863,0.30663 0,0.46523 -0.228553,0.52202 -1.207655,0.30009 -0.256886,-0.0582 -0.271106,-0.0429 -0.271106,0.29308 0,0.31508 -0.04442,0.37719 -0.399138,0.55816 -0.219527,0.11199 -0.423082,0.26602 -0.452346,0.34228 -0.02926,0.0763 -0.215643,0.19094 -0.414178,0.25485 -0.198535,0.0639 -0.405925,0.1515 -0.460868,0.19464 -0.05494,0.0431 -0.321118,0.13202 -0.591504,0.1975 -0.29029,0.0703 -0.620153,0.24011 -0.805509,0.41467 -0.194072,0.18277 -0.373397,0.27278 -0.469761,0.23581 -0.09906,-0.038 -0.250494,0.0464 -0.415518,0.23161 -0.199195,0.22356 -0.314898,0.27755 -0.49689,0.23188 -0.168365,-0.0423 -0.306913,0.006 -0.47726,0.16595 -0.201774,0.18956 -0.277764,0.2083 -0.476819,0.1176 -0.202443,-0.0922 -0.270448,-0.0721 -0.468814,0.13909 -0.173965,0.18518 -0.298428,0.2337 -0.497402,0.1939 -0.210236,-0.042 -0.336305,0.0178 -0.606725,0.28827 -0.473778,0.47378 -0.584031,0.44629 -0.5091,-0.12692 l 0.06121,-0.46828 -0.204225,0.24646 c -0.112323,0.13556 -0.338951,0.41242 -0.50362,0.61526 -0.369706,0.45542 -0.684091,0.64772 -0.684091,0.41845 z"
       style="fill:#000000" />
  </g>
</svg>
