<?xml version="1.0" encoding="UTF-8" standalone="no"?>
<!-- Created with Inkscape (http://www.inkscape.org/) -->

<svg
   xmlns:dc="http://purl.org/dc/elements/1.1/"
   xmlns:cc="http://creativecommons.org/ns#"
   xmlns:rdf="http://www.w3.org/1999/02/22-rdf-syntax-ns#"
   xmlns:svg="http://www.w3.org/2000/svg"
   xmlns="http://www.w3.org/2000/svg"
   xmlns:sodipodi="http://sodipodi.sourceforge.net/DTD/sodipodi-0.dtd"
   xmlns:inkscape="http://www.inkscape.org/namespaces/inkscape"
   width="242.60332mm"
   height="245.18077mm"
   viewBox="0 0 859.61803 868.75074"
   id="svg4941"
   version="1.1"
   inkscape:version="0.91 r13725"
   sodipodi:docname="raven-wings-up.svg">
  <defs
     id="defs4943" />
  <sodipodi:namedview
     id="base"
     pagecolor="#ffffff"
     bordercolor="#666666"
     borderopacity="1.0"
     inkscape:pageopacity="0.0"
     inkscape:pageshadow="2"
     inkscape:zoom="0.63003213"
     inkscape:cx="376.7898"
     inkscape:cy="237.48155"
     inkscape:document-units="px"
     inkscape:current-layer="g5554"
     showgrid="false"
     fit-margin-top="0"
     fit-margin-left="0"
     fit-margin-right="0"
     fit-margin-bottom="0"
     inkscape:window-width="1916"
     inkscape:window-height="1061"
     inkscape:window-x="0"
     inkscape:window-y="465"
     inkscape:window-maximized="0" />
  <metadata
     id="metadata4946">
    <rdf:RDF>
      <cc:Work
         rdf:about="">
        <dc:format>image/svg+xml</dc:format>
        <dc:type
           rdf:resource="http://purl.org/dc/dcmitype/StillImage" />
        <dc:title></dc:title>
      </cc:Work>
    </rdf:RDF>
  </metadata>
  <g
     inkscape:label="Layer 1"
     inkscape:groupmode="layer"
     id="layer1"
     transform="translate(-280.02475,-256.60692)">
    <g
       id="g5554">
      <path
         id="path5556"
         style="fill:#000000"
         d="m 870.58034,1093.4267 c -0.51563,-0.52 -0.9375,-2.0892 -0.9375,-3.4871 0,-1.8397 0.37759,-2.1641 1.36723,-1.1744 0.75197,0.7519 1.17385,2.3211 0.9375,3.4871 -0.23635,1.1659 -0.85161,1.6944 -1.36723,1.1744 z m -287.1875,-36.02 c 0,-2.5354 -3.01959,-3.2937 -7.73263,-1.9421 -6.03088,1.7297 -12.26737,1.495 -12.26737,-0.4616 0,-0.9047 4.5,-6.387 10,-12.1829 9.42091,-9.9276 11.97139,-11.7949 8.48481,-6.2121 -2.63147,4.2137 -0.12175,4.1755 6.11484,-0.093 17.49157,-11.9717 40.40035,-31.5951 40.40035,-34.6063 0,-3.0771 -4.91558,-1.3245 -15.4813,5.5198 -10.6044,6.8694 -10.91085,6.9784 -13.36864,4.7541 -2.22833,-2.0166 -3.27991,-2.1161 -9.21338,-0.8715 -3.68387,0.7727 -8.92273,2.8093 -11.64192,4.5259 -2.71917,1.7165 -12.23275,6.5387 -21.14126,10.716 -11.88953,5.5751 -17.61545,7.595 -21.52956,7.595 -6.92296,0 -6.2805,-2.3852 1.41172,-5.2413 16.44447,-6.1057 79.26495,-44.26097 81.48819,-49.49348 1.08007,-2.54199 -2.9406,-3.31889 -8.5277,-1.64779 -2.81664,0.84246 -7.93365,2.28114 -11.37115,3.19706 -3.4375,0.91593 -13,4.94038 -21.25,8.9432 l -15,7.27789 -18.88336,0.17274 c -10.38585,0.095 -19.4436,0.51899 -20.12835,0.94218 -0.68474,0.42319 -2.31223,-0.0161 -3.61664,-0.97623 -2.31861,-1.70665 -2.31575,-1.76611 0.12835,-2.65899 1.375,-0.50231 11.39131,-5.04249 22.25847,-10.08928 10.86717,-5.04678 20.08642,-9.17597 20.48723,-9.17597 0.40082,0 8.10326,-3.31075 17.11652,-7.35723 9.01328,-4.04646 23.70028,-10.6036 32.63778,-14.57139 21.55705,-9.57027 26.0273,-12.18465 27.42022,-16.03655 1.83744,-5.0811 -0.0884,-5.36262 -7.78447,-1.13798 -25.28409,13.87914 -34.51853,17.85315 -41.4855,17.85315 -3.79565,0 -10.83848,0.83399 -15.65071,1.8533 -4.81225,1.01931 -11.63144,1.86306 -15.15375,1.875 -6.72949,0.0228 -22.981,-3.55784 -27.76252,-6.11684 -1.91622,-1.02552 -5.67132,-1.23026 -11.82081,-0.64448 -4.95685,0.47217 -8.7086,0.52828 -8.33721,0.12462 0.37137,-0.4036 6.84012,-1.92225 14.375,-3.37479 7.53486,-1.45254 17.63725,-3.49437 22.44975,-4.53742 4.8125,-1.04305 12.6615,-2.73842 17.44221,-3.76749 4.78071,-1.02908 10.80519,-2.949 13.3877,-4.2665 2.58253,-1.3175 6.44238,-2.39546 8.57746,-2.39546 2.13509,0 4.95535,-0.57445 6.26724,-1.27655 1.3119,-0.70212 6.6396,-1.81597 11.83934,-2.47523 9.40306,-1.19219 25.64177,-7.19561 29.36105,-10.85472 3.05595,-3.00652 -11.29801,-0.70935 -23.125,3.70086 -5.5,2.05092 -13.20688,4.35932 -17.1264,5.12979 -3.91951,0.77046 -7.82889,2.10397 -8.6875,2.96335 -0.8586,0.85937 -3.08484,1.5625 -4.94719,1.5625 -1.86235,0 -13.42172,2.61267 -25.6875,5.80593 -23.8852,6.21828 -27.03121,6.76387 -27.78752,4.81907 -0.7567,-1.94582 5.54253,-4.49695 13.00577,-5.26723 4.23025,-0.4366 7.54219,-1.54489 8.81301,-2.94912 1.92125,-2.12297 1.76507,-2.29177 -2.77337,-2.99704 -2.64511,-0.41105 -6.40176,-1.57183 -8.3481,-2.57949 -1.94634,-1.00761 -4.54934,-1.83206 -5.78444,-1.83206 -1.23511,0 -2.9459,-0.84375 -3.80176,-1.875 -0.85586,-1.03125 -2.33099,-1.875 -3.27805,-1.875 -0.94707,0 -1.72195,-0.5625 -1.72195,-1.25 0,-0.6875 1.82812,-1.24819 4.0625,-1.24596 2.23437,0.002 9.6875,-0.83677 16.5625,-1.86442 6.875,-1.02765 23.60709,-3.28863 37.18241,-5.02441 27.61503,-3.53092 47.71586,-7.65994 67.19259,-13.80235 7.21875,-2.2766 15.09375,-4.52793 17.5,-5.00297 6.17669,-1.2194 17.5,-5.55418 17.5,-6.69933 0,-0.5279 -5.30433,-1.61167 -11.7874,-2.4084 -8.79646,-1.08101 -13.33641,-1.09102 -17.89212,-0.0394 -7.10119,1.63915 -15.87969,0.72538 -48.44548,-5.04274 -23.9396,-4.24024 -51.875,-12.53013 -51.875,-15.39404 0,-1.42479 10.1182,-1.19229 17.55904,0.40349 4.54074,0.97381 6.82266,0.98886 7.76036,0.0511 1.23318,-1.23317 6.1334,-1.0624 16.99583,0.5923 2.30462,0.35107 3.85697,0.97158 3.44965,1.3789 -0.88724,0.88723 11.30094,5.5555 14.86012,5.69167 2.38565,0.0913 5.18743,-0.36173 13.9109,-2.24915 2.3299,-0.5041 4.24289,-0.309 4.73214,0.48262 0.57829,0.93568 1.67917,0.93789 3.72126,0.008 2.13824,-0.97425 4.83544,-0.83626 10.26786,0.52528 5.59998,1.40353 9.46735,1.57582 16.11784,0.71803 4.8125,-0.62072 12.40625,-1.12302 16.875,-1.11622 4.46875,0.006 16.76193,-0.30443 27.31818,-0.69163 13.48947,-0.49478 18.9473,-0.30615 18.36577,0.63478 -0.45508,0.73632 -3.04514,1.6934 -5.75567,2.12684 -3.70218,0.592 -4.92828,1.37028 -4.92828,3.1283 0,1.5818 -0.91149,2.35312 -2.8125,2.37998 -2.6044,0.0367 -2.65064,0.16263 -0.625,1.70032 2.4063,1.82663 2.89594,5.17456 0.93413,6.38702 -0.82828,0.5119 -0.79393,1.63314 0.10125,3.30583 1.63811,3.06085 1.72827,2.96362 -8.524,9.19208 -12.72822,7.73264 -14.23392,12.02262 -3.05449,8.70268 7.81251,-2.32006 14.87434,-0.73875 21.4292,4.79854 3.68156,3.11002 3.99024,3.84002 2.76282,6.5339 -0.75998,1.66798 -3.50908,4.13411 -6.10911,5.48027 -2.60002,1.34618 -7.11795,3.67098 -10.03982,5.16625 -2.92188,1.49528 -5.3125,3.1739 -5.3125,3.73029 0,0.55639 -2.72692,4.01006 -6.05982,7.67484 -5.51201,6.0609 -8.94018,10.98105 -8.94018,12.83106 0,1.31647 3.05141,0.71695 9.97583,-1.96001 3.79454,-1.46695 8.02417,-3.09961 9.39917,-3.62814 1.375,-0.52853 5.74396,-2.21001 9.7088,-3.73664 3.96483,-1.52662 7.51366,-3.26896 7.88626,-3.87186 1.25315,-2.02764 3.02994,-1.11893 3.02994,1.54961 0,2.65489 1.08807,2.74848 6.39822,0.55034 1.40224,-0.58046 2.22955,-0.0485 2.69548,1.73317 0.90015,3.44222 2.1082,3.24745 6.87772,-1.10883 2.89051,-2.64008 4.02858,-4.7809 4.02858,-7.57823 0,-4.92207 5.10875,-20.28696 7.1875,-21.61685 1.85723,-1.18822 2.10653,-5.87546 0.31252,-5.87546 -2.12641,0 -1.41981,-2.92087 3.34866,-13.8424 3.79433,-8.69039 4.6142,-12.06303 4.6875,-19.2826 0.0716,-7.05685 0.64941,-9.53594 2.98585,-12.81164 4.39114,-6.15645 1.53749,-10.79632 -7.27201,-11.82386 -1.77604,-0.20716 -3.1352,-1.17783 -3.14861,-2.24865 -0.013,-1.03628 -2.12236,-4.6328 -4.6875,-7.99225 -2.56514,-3.35946 -4.66389,-6.61956 -4.66389,-7.24468 0,-0.6251 -1.40625,-3.20603 -3.125,-5.73541 -2.73772,-4.02892 -3.125,-5.93809 -3.125,-15.40562 0,-7.9366 -0.48344,-11.208 -1.82025,-12.31745 -2.46971,-2.04968 -4.06554,-0.7993 -5.12268,4.0138 -0.48688,2.21681 -1.78673,5.22568 -2.88854,6.6864 -1.98319,2.62917 -2.07572,2.57918 -9.22352,-4.98242 -5.27155,-5.57673 -7.42982,-8.91081 -7.99681,-12.35342 -0.92303,-5.60438 -2.00361,-6.50329 -5.54155,-4.60984 -2.18905,1.17154 -3.06171,0.96833 -5.06209,-1.17883 -1.32939,-1.42694 -4.03395,-3.43054 -6.01014,-4.45247 -5.26466,-2.72246 -8.72033,-9.21042 -9.65166,-18.12078 -1.02629,-9.81909 -3.26766,-11.28029 -13.88654,-9.05295 -7.80868,1.63788 -10.92451,0.52371 -14.71547,-5.26204 -1.07474,-1.64025 -4.17031,-4.44893 -6.87906,-6.24149 -3.99265,-2.64221 -5.07964,-4.22631 -5.74189,-8.36781 -0.87516,-5.47298 -1.48835,-6.28124 -7.43485,-9.80014 -2.11751,-1.25306 -4.75306,-4.18127 -5.85675,-6.50712 -2.11937,-4.46625 -5.52709,-7.94638 -11.28545,-11.52524 -3.37053,-2.09481 -3.46305,-2.42861 -2.65435,-9.57659 0.7927,-7.00646 0.67761,-7.46676 -2.13275,-8.52999 -1.63385,-0.61812 -6.0644,-1.53395 -9.84565,-2.03515 -8.64439,-1.1458 -14.41061,-4.60727 -17.42933,-10.46282 -1.29337,-2.50885 -4.36965,-6.50001 -6.83613,-8.86925 -5.24578,-5.03893 -5.806,-9.50903 -1.96969,-15.71631 1.38316,-2.23802 2.19379,-4.90579 1.80137,-5.9284 -0.7752,-2.02015 -6.88992,-4.95702 -15.20917,-7.30488 -7.08656,-1.99997 -10.30338,-5.77969 -12.31423,-14.46906 -3.26473,-14.10765 -5.12933,-19.44286 -7.2001,-20.60171 -1.151,-0.64414 -2.09272,-2.30518 -2.09272,-3.69122 0,-1.38603 -0.58131,-3.60625 -1.2918,-4.93381 -1.36706,-2.55439 -9.85187,-7.4219 -12.9375,-7.4219 -3.45419,0 -9.8994,-6.79522 -12.91694,-13.61843 -6.40439,-14.48143 -6.77372,-16.43648 -3.96402,-20.98267 l 2.52496,-4.08549 -4.14485,-2.551 c -7.33569,-4.51484 -12.64315,-5.53361 -20.55279,-3.94512 -3.92371,0.78798 -10.43447,1.43271 -14.46836,1.43271 -7.32039,0 -7.34941,-0.0149 -15.23835,-7.8125 -12.47239,-12.32804 -22.01035,-24.35561 -22.01035,-27.75556 0,-4.20956 2.44675,-5.30554 4.85901,-2.1765 1.1088,1.43825 4.82849,3.81281 8.26599,5.2768 8.10426,3.4515 33.10027,9.89878 35.22153,9.08478 2.36815,-0.90873 0.91263,-2.55364 -3.04837,-3.44503 -4.85876,-1.09343 -29.22806,-14.7733 -30.82389,-17.30323 -0.96677,-1.53264 -0.89433,-2.8094 0.26469,-4.66529 0.87765,-1.40533 1.2629,-3.09371 0.8561,-3.75192 -1.56312,-2.52919 -14.05505,-13.7038 -21.22006,-18.98232 -8.70188,-6.41077 -30.21351,-28.81473 -28.28446,-29.45774 0.71867,-0.23957 5.22225,0.6725 10.00792,2.02681 7.47772,2.11614 9.04494,2.22164 11.14559,0.75027 6.13257,-4.29541 2.66159,-12.45719 -4.6738,-10.99012 -6.54905,1.30981 -12.1442,-0.69742 -22.37366,-8.02646 -10.51804,-7.53579 -37.97848,-30.40678 -37.31046,-31.07479 0.21552,-0.21551 4.7883,1.51936 10.16173,3.85528 9.61552,4.18003 13.20214,4.52905 13.20214,1.2847 0,-3.16317 -6.14388,-8.90967 -11.11964,-10.40044 -2.75972,-0.82684 -6.58992,-2.78848 -8.51152,-4.3592 -1.92162,-1.57073 -6.30634,-4.46512 -9.74384,-6.43198 -3.4375,-1.96686 -8.78125,-5.66224 -11.875,-8.21195 -3.09375,-2.5497 -7.59375,-5.55918 -10,-6.68773 -2.40625,-1.12855 -5.78125,-3.19956 -7.5,-4.60225 l -3.125,-2.55034 3.05593,0.86485 c 1.68076,0.47567 26.31334,12.39397 54.73908,26.48511 28.42573,14.09114 52.08079,25.22262 52.56678,24.73662 0.486,-0.48599 -0.66221,-2.00969 -2.55158,-3.38601 -1.88936,-1.37631 -3.43521,-3.18887 -3.43521,-4.02791 0,-2.2099 -8.02404,-9.64844 -13.59566,-12.60361 -8.96683,-4.75597 -13.13227,-7.53427 -17.58244,-11.72727 -2.44579,-2.30446 -6.45327,-5.21647 -8.90553,-6.47115 -2.45223,-1.25466 -5.16298,-3.12991 -6.02387,-4.16721 -0.86089,-1.03731 -3.15555,-2.2353 -5.09926,-2.66221 -1.9437,-0.42691 -4.56529,-1.91576 -5.82575,-3.30854 -1.26045,-1.39279 -3.99065,-3.24334 -6.06711,-4.11233 -2.07645,-0.869 -5.8285,-3.63506 -8.33788,-6.14681 -2.50938,-2.51175 -5.71729,-4.56682 -7.12869,-4.56682 -4.58264,0 -8.56181,-2.65719 -11.31503,-7.5559 -1.93953,-3.45092 -4.65541,-5.75666 -9.67112,-8.21062 -9.70148,-4.74649 -23.55687,-16.73348 -19.34172,-16.73348 0.68624,0 12.10876,7.2236 25.38338,16.05245 34.63895,23.03809 77.1486,49.43606 100.2253,62.23868 13.75594,7.63159 18.82419,7.0948 15.16567,-1.60627 -1.11665,-2.65574 -5.14509,-6.1136 -13.30348,-11.4192 -6.436,-4.1855 -14.03331,-9.89503 -16.88293,-12.68783 -2.84962,-2.79281 -6.29848,-5.07783 -7.66414,-5.07783 -1.37003,0 -3.98273,-1.96622 -5.82879,-4.38654 -1.84017,-2.4126 -5.46376,-5.46705 -8.0524,-6.78768 -2.58865,-1.32062 -6.07169,-4.40534 -7.74009,-6.85492 -1.6684,-2.44958 -3.3996,-4.45762 -3.84711,-4.46232 -2.10172,-0.0221 -16.33909,-11.91977 -17.91841,-14.97384 -0.98054,-1.89618 -3.82243,-4.41545 -6.31529,-5.59839 -2.9221,-1.38662 -4.99823,-3.48687 -5.84336,-5.91124 -0.721,-2.06824 -2.9542,-4.7598 -4.96269,-5.98123 -3.16825,-1.92673 -14.7716,-14.31505 -14.7716,-15.77091 0,-1.57359 2.80506,0.80651 16.6936,14.16457 31.47726,30.27498 53.49854,48.22394 95.02735,77.45431 21.55398,15.17094 26.99405,18.3227 27.04819,15.67069 0.01,-0.51563 0.52974,-1.7444 1.1538,-2.73061 0.90838,-1.43554 3.12026,-0.25705 11.09205,5.90986 10.79518,8.35106 37.94802,25.61392 42.62126,27.09715 1.58956,0.5045 4.9373,2.70541 7.43943,4.8909 11.73441,10.24946 37.95497,27.90807 57.67432,38.8416 7.21875,4.00248 17.13629,9.51086 22.03896,12.24086 4.90269,2.72999 11.90345,7.22627 15.55724,9.99171 3.6538,2.76547 8.64251,5.85105 11.08604,6.85688 2.44351,1.00583 5.56776,2.83036 6.94276,4.05452 1.375,1.22417 4.55285,2.59139 7.0619,3.03827 2.50904,0.44689 5.2701,1.66586 6.13569,2.70882 1.89736,2.28618 20.96755,15.53754 22.36026,15.53754 0.54094,0 6.35952,3.61966 12.93021,8.04371 6.57068,4.42404 13.73444,8.96819 15.91949,10.09813 2.18504,1.12992 9.68097,6.19721 16.65763,11.26062 6.97664,5.06343 14.00698,10.15066 15.62294,11.30499 2.37229,1.69459 2.79107,2.83412 2.17448,5.91702 -0.98315,4.91579 -1.11852,5.01505 -5.5211,4.04808 -2.18612,-0.48015 -3.97335,-1.81376 -4.34736,-3.24395 -0.37375,-1.42924 -1.71199,-2.4286 -3.25212,-2.4286 -1.46045,0 -2.61702,-0.80615 -2.61702,-1.82409 0,-1.83292 -3.28498,-5.9742 -11.0727,-13.95909 -4.86789,-4.99112 -12.54853,-9.21682 -16.7525,-9.21682 -1.60864,0 -3.55079,-0.62599 -4.31589,-1.39109 -1.5779,-1.5779 -4.53242,-0.30545 -3.43052,1.47747 0.39553,0.63998 1.77906,1.16362 3.0745,1.16362 1.29545,0 3.09037,1.03409 3.98873,2.29796 0.89836,1.26388 3.20325,2.68662 5.12201,3.16164 1.91873,0.47504 3.15834,1.39808 2.75468,2.05121 -0.40365,0.65314 -0.11175,2.3501 0.64874,3.77104 1.92285,3.59289 15.98483,13.7349 17.9813,12.96879 1.02094,-0.39178 3.64629,2.69606 6.97173,8.19982 3.89702,6.4498 6.21923,9.02407 8.61951,9.55508 6.17437,1.36594 7.66041,1.91329 7.66041,2.8215 0,1.42991 9.01091,10.72 12.8125,13.20945 1.89062,1.23807 3.4375,3.01866 3.4375,3.95687 0,0.9382 2.25,2.85369 5,4.25664 2.75,1.40295 5,3.3395 5,4.30346 0,0.96397 2.00731,2.41513 4.46069,3.22482 2.74471,0.90583 4.22486,2.08668 3.84767,3.06962 -0.85136,2.21864 1.64033,4.4021 5.02354,4.4021 1.55755,0 4.67943,1.6926 6.9375,3.76135 2.25808,2.06874 6.3556,5.79683 9.1056,8.28465 2.75,2.48783 9.70187,8.97129 15.44862,14.4077 5.74674,5.43641 12.57238,10.96784 15.16807,12.29206 2.5957,1.32423 6.34929,3.97628 8.3413,5.89347 1.99202,1.91717 5.43202,5.03698 7.64444,6.93291 2.21241,1.89594 4.02257,4.18851 4.02257,5.09461 0,0.9061 1.47355,3.01114 3.27456,4.67786 4.38742,4.06027 9.22544,11.79382 9.22544,14.74682 0,2.45881 2.2843,3.90857 6.1585,3.90857 1.21221,0 3.22214,1.125 4.4665,2.5 1.24436,1.375 2.95016,2.5 3.79068,2.5 0.84052,0 2.22846,0.84375 3.08432,1.875 0.85586,1.03125 2.78598,1.875 4.28915,1.875 1.50316,0 3.82491,0.82586 5.15944,1.83525 2.91932,2.20806 8.06434,2.4248 12.2533,0.51618 2.42445,-1.10465 3.92199,-0.9733 7.12586,0.625 5.46176,2.72468 5.83511,2.63703 8.68493,-2.03893 1.81097,-2.97145 3.38376,-4.0625 5.85623,-4.0625 2.75844,0 3.71315,-0.86919 5.18945,-4.7246 2.69458,-7.037 0.61107,-10.9004 -5.87851,-10.9004 -2.80727,0 -5.53352,-0.795 -6.42985,-1.875 -0.85586,-1.03125 -2.75286,-1.87546 -4.21555,-1.87602 -1.4627,-5.7e-4 -6.65951,-0.83554 -11.54847,-1.8555 -4.88898,-1.01998 -11.35773,-1.76349 -14.375,-1.65228 -7.08607,0.26119 -13.38724,-3.95986 -26.83078,-17.9735 -5.48345,-5.71599 -14.1741,-14.19926 -19.31255,-18.85174 l -9.34265,-8.45902 4.6875,-4.17344 c 8.02369,-7.14376 5.5386,-10.68161 -4.0625,-5.7835 -6.26392,3.19561 -7.03467,3.15164 -12.06951,-0.68861 -7.41863,-5.65846 -5.43074,-7.71894 13.06524,-13.54226 16.84011,-5.30198 20.59627,-8.10437 15.98838,-11.92857 -2.1986,-1.82468 -12.38578,0.64004 -29.12482,7.04655 -7.69176,2.94387 -12.55696,4.14607 -14.65141,3.62039 -3.73753,-0.93806 -6.57537,-5.39001 -4.65799,-7.30739 1.54999,-1.54998 42.8168,-11.95493 53.29249,-13.43707 7.802,-1.10386 12.42575,-4.54534 11.62676,-8.65385 -0.31895,-1.64004 -2.22513,-1.95909 -10.99,-1.83949 -5.83228,0.0796 -14.82289,0.75556 -19.97914,1.50216 -5.15625,0.7466 -15.5625,2.2289 -23.125,3.29399 -7.5625,1.0651 -16.80644,2.4985 -20.54207,3.18535 -3.73564,0.68684 -7.80069,1.2488 -9.03344,1.2488 -2.16825,0 -12.96663,-12.24952 -11.81424,-13.40191 0.90625,-0.90626 10.4057,-2.8553 23.26475,-4.77335 17.59199,-2.624 37.5,-6.99723 37.5,-8.23768 0,-0.59788 -1.07956,-1.08706 -2.39904,-1.08706 -1.31947,0 -5.94924,-0.90951 -10.28836,-2.02115 -5.70599,-1.46181 -11.18231,-1.84949 -19.78845,-1.40086 -8.10166,0.42232 -12.89646,0.12579 -15.02415,-0.92917 -3.41885,-1.69515 -16.91384,-3.58717 -23.57814,-3.30572 -6.04976,0.25551 -13.7251,-2.08473 -16.15854,-4.92678 -1.15371,-1.34742 -2.734,-5.11419 -3.51175,-8.3706 -0.77776,-3.2564 -1.8647,-6.99168 -2.41542,-8.30065 -0.92681,-2.20286 -0.59061,-2.31126 4.51878,-1.45688 11.41323,1.90847 13.06273,2.01043 14.71163,0.90933 1.31868,-0.88058 1.37786,-1.71572 0.26852,-3.78856 -1.30754,-2.44315 -1.11206,-2.65896 2.40861,-2.65896 2.1074,0 7.04907,1.33724 10.98147,2.97164 6.36807,2.64672 8.09229,2.85463 15.76918,1.90151 4.74062,-0.58859 8.88366,-1.33448 9.20672,-1.65755 0.72448,-0.72446 -6.13529,-6.8715 -7.72916,-6.9261 -0.63421,-0.0217 -4.17365,-3.13325 -7.86542,-6.9145 -3.69178,-3.78125 -7.53002,-6.875 -8.52942,-6.875 -0.99941,0 -5.27865,-1.19794 -9.50942,-2.66209 -6.19864,-2.14516 -9.32612,-2.51024 -16.10617,-1.8801 -6.44805,0.59928 -8.75511,0.37076 -9.87456,-0.97809 -0.8034,-0.96804 -4.23365,-2.42528 -7.62276,-3.23832 -5.58227,-1.33917 -6.28144,-1.90814 -7.43113,-6.04733 -2.28746,-8.23551 -2.16861,-8.37673 8.40448,-9.98606 5.32812,-0.81099 11.23437,-1.47081 13.125,-1.46627 3.47055,0.009 4.2122,-1.51843 2.67876,-5.5145 -0.48751,-1.27045 -2.28917,-1.97724 -5.04015,-1.97724 -5.76569,0 -12.42585,-2.93289 -14.20366,-6.25478 -0.79959,-1.49402 -3.41536,-4.88765 -5.81286,-7.54138 l -4.35908,-4.82498 4.77474,0.69263 c 2.62611,0.38095 8.71225,1.52111 13.52475,2.5337 23.58861,4.96322 26.96541,5.33259 32.36164,3.53971 2.8261,-0.93896 6.54461,-1.93392 8.26336,-2.21104 2.96891,-0.47866 2.89588,-0.60697 -1.46214,-2.56869 -2.52292,-1.13567 -8.42917,-5.33577 -13.125,-9.33357 -9.08066,-7.73085 -15.70957,-12.76068 -29.78786,-22.60219 -9.57323,-6.69222 -13.99328,-10.9778 -12.6784,-12.29267 1.26811,-1.26811 12.87222,1.92751 21.82811,6.01117 4.34484,1.98115 8.26654,3.60209 8.71488,3.60209 0.44834,0 13.1387,6.23723 28.2008,13.86049 27.10201,13.71695 46.14825,22.38951 49.17067,22.38951 1.64752,0 11.63894,-4.91531 11.63894,-5.7258 0,-0.26036 -2.22854,-1.6103 -4.9523,-2.99986 -2.72378,-1.38956 -5.95815,-3.55497 -7.1875,-4.81199 -1.22936,-1.25704 -8.14145,-7.38604 -15.3602,-13.62001 -7.21875,-6.23398 -16.78346,-14.90814 -21.25492,-19.27592 -18.94011,-18.50096 -36.18444,-43.56642 -29.97249,-43.56642 3.59475,0 21.22762,12.27191 43.72741,30.43286 66.51448,53.6879 67.73524,54.56714 75.76307,54.56714 5.69529,0 6.31637,-1.96348 1.81828,-5.74838 -2.10725,-1.77312 -3.83135,-4.01368 -3.83135,-4.97903 0,-0.96534 -4.35938,-6.7521 -9.6875,-12.85945 -20.00672,-22.93268 -22.8125,-26.26768 -22.8125,-27.11542 0,-0.47835 -1.96875,-3.0489 -4.375,-5.71232 -5.06865,-5.61039 -6.00714,-9.54685 -1.73038,-7.258 2.1088,1.12859 2.53374,1.07419 2.09732,-0.26851 -0.30103,-0.92614 -2.50909,-2.6223 -4.9068,-3.76924 -2.39771,-1.14694 -5.09788,-2.97506 -6.00036,-4.0625 -1.40859,-1.69725 -1.26531,-1.97715 1.01217,-1.97715 4.33727,0 3.04096,-2.99531 -3.20016,-7.39448 -4.96767,-3.50153 -5.53502,-4.30378 -3.75,-5.30273 3.13203,-1.75278 2.58513,-3.03924 -2.27179,-5.34402 -3.07193,-1.45772 -4.375,-2.90652 -4.375,-4.86428 0,-1.53353 -0.89393,-4.06447 -1.98649,-5.62433 -1.09257,-1.55986 -1.6885,-3.61265 -1.3243,-4.56175 0.3642,-0.94909 -0.14812,-2.39813 -1.13851,-3.22008 -3.73065,-3.09616 -1.6034,-3.7374 3.2847,-0.99014 6.45714,3.62912 22.55442,20.35323 41.91946,43.55181 20.469,24.52107 32.17399,36.85656 36.78509,38.76655 4.82024,1.99661 7.14591,0.31777 5.03187,-3.63235 -1.14916,-2.14723 -1.05502,-2.6342 0.50921,-2.6342 2.52545,0 2.38506,-1.20808 -0.58103,-5 -2.73338,-3.49443 -3.14525,-6.35475 -1.19578,-8.30423 0.90563,-0.90562 0.73415,-2.41461 -0.56111,-4.9375 -1.02592,-1.99829 -2.14975,-4.59699 -2.49737,-5.77488 -0.34763,-1.17788 -4.45452,-4.13352 -9.1264,-6.56806 -4.67189,-2.43456 -7.65059,-4.3573 -6.61934,-4.27279 7.54807,0.61861 8.14629,-1.76526 1.875,-7.472 -2.40625,-2.18964 -4.375,-4.76558 -4.375,-5.7243 0,-0.95873 -2.00238,-3.61695 -4.44974,-5.90719 -4.59969,-4.30439 -16.32346,-25.70942 -14.8529,-27.11814 1.17701,-1.12752 19.10103,18.34984 29.17564,31.70409 18.1762,24.09316 37.8204,54.33835 50.74206,78.125 8.34846,15.36812 10.22994,17.73767 13.69098,17.24252 3.7359,-0.53447 3.78945,-4.45176 0.21552,-15.76523 -5.91337,-18.71916 -8.67926,-43.99934 -5.90482,-53.97003 0.81627,-2.9335 1.00291,-2.78576 3.15824,2.5 5.86647,14.38711 15.45481,46.45028 23.92144,79.99274 4.90522,19.43307 4.9244,19.57135 2.42858,17.5 -1.03125,-0.85586 -1.875,-2.57141 -1.875,-3.81233 0,-2.50082 -5.56963,-7.43767 -8.39097,-7.43767 -1.14617,0 -0.17323,1.905 2.66857,5.225 2.45981,2.87375 4.4724,5.89863 4.4724,6.72194 0,2.62101 3.12111,4.43195 4.77974,2.77332 1.12701,-1.12701 1.47026,-0.85256 1.47026,1.17558 0,1.4552 -0.64316,2.86021 -1.42925,3.12225 -1.70905,0.56967 0.75483,5.98191 2.72322,5.98191 1.7219,0 1.49729,4.69458 -0.25252,5.27785 -0.93949,0.31316 -0.58136,1.35113 1.00631,2.91666 1.35568,1.33678 4.40265,4.94093 6.77105,8.00924 3.84525,4.98154 4.27755,6.31966 4.03875,12.5 -0.2253,5.83175 0.1633,7.25067 2.469,9.01396 2.3096,1.76627 2.7874,3.5212 3.0629,11.25 0.1796,5.03651 0.4748,10.28229 0.656,11.65729 0.2666,2.02285 -0.5034,2.57905 -4.0345,2.91419 -3.9798,0.37772 -6.19176,1.8794 -6.24182,4.23757 -0.01,0.49596 1.80902,1.38 4.04332,1.96453 3.409,0.8918 4.0658,1.65166 4.083,4.72323 0.011,2.01327 -0.5052,4.93555 -1.1477,6.49397 -0.8718,2.11461 -0.6745,3.22458 0.7778,4.375 2.8455,2.25412 3.7813,9.77493 1.5789,12.68896 -1.2615,1.66902 -1.4242,2.86477 -0.5355,3.93559 0.8689,1.04702 0.8652,4.07321 -0.011,9.47756 -1.7412,10.73066 -1.6471,22.72451 0.1928,24.5644 0.9714,0.97137 6.0114,1.5 14.3013,1.5 7.1858,0 13.1401,0.54832 13.5737,1.25 0.4249,0.6875 3.4113,1.25861 6.6363,1.26914 6.5159,0.0213 9.7776,1.44325 8.4049,3.66428 -0.5536,0.89563 -2.3004,1.15628 -4.5047,0.67214 -1.9802,-0.43494 -4.3173,-0.34211 -5.1935,0.20628 -0.8761,0.5484 -2.4367,1.01195 -3.468,1.03012 -1.2883,0.0228 -1.9854,1.59749 -2.2279,5.03304 -0.1941,2.75 -1.3191,6.86485 -2.5,9.14411 -2.1991,4.2446 -9.1285,8.58518 -11.4325,7.16128 -1.9315,-1.19346 -8.8401,4.43536 -8.8401,7.20216 0,1.32682 1.6875,4.33437 3.75,6.68342 2.0625,2.34907 3.7536,4.95457 3.7579,5.79003 0,0.83545 1.6126,2.43171 3.5739,3.54726 4.3546,2.47685 5.5333,7.41769 3.1375,13.15164 l -1.7528,4.1951 -9.0457,-0.0442 c -4.9752,-0.0244 -10.2991,-0.74069 -11.8309,-1.59185 -3.3509,-1.86189 -28.09956,0.11675 -30.3948,2.43003 -1.73342,1.74705 1.94885,9.72825 3.92488,8.507 2.2347,-1.38113 16.13006,0.81025 16.13006,2.5438 0,0.87956 0.84594,2.30127 1.87986,3.15936 1.65855,1.37646 1.58389,2.03904 -0.63411,5.62784 l -2.51396,4.06768 7.82157,-0.39962 c 9.6656,-0.49384 12.1966,0.1877 12.1966,3.2843 0,3.13827 3.353,3.13578 4.3493,-0.004 0.4753,-1.49734 3.0901,-3.19034 6.8631,-4.44351 6.8079,-2.26123 9.127,-4.35663 8.5512,-7.72635 -0.3148,-1.84253 0.6794,-2.40513 5.2364,-2.9634 3.0938,-0.379 6.75,-1.34148 8.125,-2.13883 3.4004,-1.97186 16.9814,-5.61927 17.8159,-4.78476 0.3696,0.36966 -0.647,1.16009 -2.2592,1.7565 -5.9169,2.1888 -23.1372,18.24955 -28.124,26.23032 -3.1805,5.08999 -11.4818,14.12206 -23.3702,25.42754 -15.93739,15.15603 -18.43746,17.10474 -18.43746,14.37126 0,-4.68002 -1.69129,-4.91571 -5.64695,-0.78688 -3.45799,3.60935 -3.48255,3.7359 -1.21233,6.24446 2.15599,2.38234 2.17329,2.70432 0.2488,4.62881 -1.9245,1.9245 -2.24018,1.87027 -4.53831,-0.77949 -1.35846,-1.56632 -2.6401,-3.31003 -2.84807,-3.87492 -0.33067,-0.89813 -7.45137,-1.71088 -11.94064,-1.36289 -2.32389,0.18013 -2.01878,7.62111 0.3125,7.62111 1.03125,0 1.875,0.5625 1.875,1.25 0,0.6875 -1.03783,1.25 -2.30626,1.25 -1.26845,0 -3.25139,1.04435 -4.40654,2.32078 -1.90574,2.10581 -1.91805,2.472 -0.13301,3.95345 1.49986,1.24477 1.82785,3.24269 1.38046,8.409 -0.6548,7.56145 -3.80003,12.48257 -6.52993,10.21695 -1.20177,-0.99738 -2.19412,-0.64203 -3.87276,1.3868 -1.24132,1.50027 -4.78821,3.82939 -7.88196,5.17577 -9.6221,4.18753 -17.17898,13.50923 -9.36087,11.54702 2.68436,-0.67374 3.01041,-0.45083 2.25061,1.53867 -0.48868,1.27961 -1.9601,3.45156 -3.26982,4.82656 -1.30971,1.375 -3.23093,3.76563 -4.26937,5.3125 -1.03844,1.54688 -2.71904,2.8125 -3.73465,2.8125 -1.01561,0 -3.24715,1.10169 -4.95896,2.4482 -2.18639,1.71982 -4.19754,2.23118 -6.75966,1.71875 -3.01094,-0.6017 -3.64728,-0.31255 -3.64728,1.65778 0,1.31271 -1.63366,3.35177 -3.63036,4.53125 -4.61688,2.72725 -5.11964,2.69233 -5.11964,-0.35549 0,-1.375 -0.48664,-2.5 -1.08143,-2.5 -0.59478,0 -2.51163,1.125 -4.25966,2.5 -1.74802,1.375 -3.6874,2.5 -4.30971,2.5 -0.62231,0 -2.75175,1.69121 -4.7321,3.75824 -2.78943,2.91155 -3.26454,4.09432 -2.10886,5.25 3.6329,3.6329 1.67141,6.84871 -7.57057,12.4118 -4.98428,3.00023 -9.40566,5.61625 -9.82528,5.81338 -0.41963,0.19714 -0.51143,-9.7481 -0.204,-22.10052 l 0.55895,-22.45895 -4.79616,-3.07348 c -4.31864,-2.76747 -5.00934,-2.8855 -6.93712,-1.18537 -1.17752,1.03845 -3.0012,1.558 -4.05261,1.15453 -2.46934,-0.94758 -18.5463,13.20862 -21.78284,19.18037 -2.18426,4.0302 -2.77072,4.34432 -7.44138,3.98581 -4.76952,-0.3661 -5.27397,-0.0695 -8.50454,5 -4.49535,7.05428 -6.38816,8.51419 -11.0388,8.51419 -3.52956,0 -5.98981,1.72101 -8.6779,6.07041 -0.57029,0.92276 -0.14913,2.50621 1.00614,3.78276 1.09286,1.2076 2.5608,5.22115 3.26207,8.91901 1.75101,9.23304 4.39086,10.88021 8.97949,5.60282 3.76039,-4.32483 4.76631,-3.9291 4.76631,1.875 0,3.33334 0.83334,5.83334 2.5,7.5 1.73854,1.73854 2.5,4.16666 2.5,7.97195 0,5.99227 2.29524,9.23281 4.77974,6.74831 0.80865,-0.80865 1.47026,-2.34661 1.47026,-3.41771 0,-1.07109 1.40625,-4.58907 3.125,-7.81774 2.01413,-3.78352 3.125,-7.89022 3.125,-11.55255 0,-5.22775 -0.24996,-5.68226 -3.125,-5.68226 -1.71875,0 -3.11639,-0.70312 -3.10586,-1.5625 0.0335,-2.7365 1.99456,-4.79565 3.87861,-4.07267 1.93704,0.74331 9.164,-5.85976 8.41169,-7.6855 -0.23894,-0.57988 0.71557,-1.21893 2.12115,-1.42011 1.85622,-0.26567 3.1141,0.80549 4.59655,3.91422 1.81851,3.81344 1.83779,4.57007 0.17685,6.94138 -2.88801,4.12322 -1.10674,7.12752 5.28742,8.91777 4.23863,1.18675 6.78269,1.24583 10.07928,0.23409 l 4.40957,-1.35336 -0.65067,5.85584 c -1.30874,11.77794 -2.13953,13.98084 -5.27269,13.98084 -1.60015,0 -3.257,0.5625 -3.6819,1.25 -0.4249,0.6875 -2.00497,1.25668 -3.51127,1.26484 -2.04186,0.0113 -3.72825,1.83993 -6.62758,7.1875 -2.13887,3.94496 -4.29409,8.85948 -4.78938,10.92115 -0.80816,3.36409 -1.06089,3.52914 -2.46454,1.60954 -1.40764,-1.92507 -1.76995,-1.70718 -3.62302,2.17872 -1.54506,3.24003 -2.75564,4.24225 -4.85027,4.01546 -3.10059,-0.3357 -4.34016,2.96691 -4.61105,12.28527 -0.13205,4.54245 0.46695,5.63995 5.59133,10.24462 5.12284,4.60332 5.64917,5.56722 4.90069,8.97512 -1.03161,4.6968 -1.83899,4.7503 -5.74376,0.3803 -10.88416,-12.18083 -12.81769,-19.79904 -8.80379,-34.68752 2.00235,-7.42712 1.81683,-18.125 -0.31431,-18.125 -0.94706,0 -2.44916,0.87625 -3.33799,1.94723 -0.88882,1.07096 -3.34832,2.77351 -5.46555,3.78343 -5.62437,2.68284 -9.15865,4.84603 -11.75182,7.19282 -3.53436,3.19855 -5.00673,2.52071 -6.49003,-2.98785 -1.55225,-5.76465 -3.77637,-7.13654 -8.25881,-5.0942 -2.26628,1.03258 -3.81158,1.04819 -5.66322,0.0572 -2.0358,-1.08952 -3.08689,-0.87832 -5.24107,1.05319 -7.53261,6.75396 -25.9125,18.39209 -33.787,21.39386 -7.73425,2.94832 -9.28581,4.07945 -11.77916,8.5873 -3.67799,6.64962 -18.00359,16.76774 -34.0034,24.01654 -6.53125,2.959 -13.84375,7.2 -16.25,9.4244 -10.2172,9.4452 -33.10859,22.8693 -36.66829,21.5033 -1.30879,-0.5022 -2.08171,-2.2057 -2.08171,-4.588 0,-5.5518 -2.95281,-4.9316 -15.14223,3.1804 -10.21977,6.8012 -10.49082,6.8994 -11.2135,4.0625 -1.23248,-4.8381 -5.60745,-2.161 -7.44133,4.5535 -0.45917,1.6811 -3.23118,3.3536 -8.75,5.2793 -9.40003,3.2801 -12.45294,3.5605 -12.45294,1.1438 z m 74.5565,-56.6004 c 13.22754,-13.63435 15.78451,-17.67665 9.72393,-15.37241 -4.41619,1.67903 -14.28043,8.57438 -14.28043,9.98236 0,0.63153 -2.53125,3.99828 -5.625,7.48165 -5.34761,6.0212 -7.2967,11.25 -4.1935,11.25 0.78733,0 7.25608,-6.0037 14.375,-13.3416 z m 7.9435,10.1125 c 0,-2.2074 -2.69095,-1.823 -3.46354,0.4948 -0.27214,0.8164 0.39583,1.4843 1.48438,1.4843 1.08853,0 1.97916,-0.8906 1.97916,-1.9791 z m 9.76041,-6.8646 c -0.24635,-0.7391 -0.98228,-1.3438 -1.63541,-1.3438 -0.65312,0 -1.38906,0.6047 -1.63541,1.3438 -0.24636,0.739 0.48957,1.3437 1.63541,1.3437 1.14584,0 1.88178,-0.6047 1.63541,-1.3437 z m -38.41666,-4 c -0.15461,-1.49465 -1.86911,-1.2052 -2.40625,0.4062 -0.275,0.825 0.175,1.275 1,1 0.825,-0.275 1.45781,-0.9078 1.40625,-1.4062 z M 587.3318,975.59323 c 4.5324,-4.0497 4.23349,-7.6953 -0.63097,-7.6953 -3.34343,0 -7.05799,4.58191 -7.05799,8.70603 0,3.56711 3.008,3.17171 7.68896,-1.01073 z m 71.72619,1.74349 c 4.6336,-1.93605 5.21745,-3.05619 2.83485,-5.43879 -2.24018,-2.24018 -4.14733,-1.84571 -8.40745,1.73894 -6.06144,5.10036 -2.8625,7.22425 5.5726,3.69985 z m 75.391,-8.50129 c 5.40667,-4.32674 7.43359,-7.94776 5.51997,-9.86137 -1.41948,-1.41949 -15.32612,9.65233 -15.32612,12.20197 0,2.96655 4.52355,1.88684 9.80615,-2.3406 z m 58.94385,-29.76128 c 0,-0.64692 -0.5625,-1.17622 -1.25,-1.17622 -0.6875,0 -1.25,0.87695 -1.25,1.94878 0,1.07182 0.5625,1.60112 1.25,1.17622 0.6875,-0.4249 1.25,-1.30185 1.25,-1.94878 z m 54.9594,-4.85036 c 0.91649,-1.71247 0.88837,-2.67691 -0.0958,-3.28515 -1.46954,-0.90822 -3.56214,1.5059 -3.59449,4.14679 -0.0293,2.38815 2.23383,1.85974 3.69026,-0.86164 z m -55.48983,-5.47608 c 0.0701,-2.18613 0.57682,-7.20916 1.12604,-11.16228 0.98934,-7.12094 0.46541,-8.21771 -2.90517,-6.08165 -1.96565,1.2457 -2.11962,4.12181 -0.79544,14.85905 0.9992,8.10205 2.35111,9.35435 2.57457,2.38488 z m -229.46957,0.89148 c 0,-0.27018 -0.84375,-0.49126 -1.875,-0.49126 -1.03125,0 -1.875,0.54485 -1.875,1.21077 0,0.66592 0.84375,0.88699 1.875,0.49127 1.03125,-0.39574 1.875,-0.94058 1.875,-1.21078 z m 217.5,-6.11626 c 0,-1.03125 -0.5625,-1.875 -1.25,-1.875 -0.6875,0 -1.25,0.84375 -1.25,1.875 0,1.03125 0.5625,1.875 1.25,1.875 0.6875,0 1.25,-0.84375 1.25,-1.875 z m -1.75409,-18.53694 c 3.21713,-2.76725 3.39801,-3.52807 3.6407,-15.3125 0.14045,-6.82031 0.69921,-14.03134 1.24169,-16.0245 1.39295,-5.11806 -0.92724,-3.35102 -6.09804,4.64419 -2.30487,3.56386 -5.67334,7.84342 -7.48547,9.51014 -4.47449,4.11544 -4.15047,5.56057 1.05731,4.71547 5.55869,-0.90206 6.65252,0.90623 3.29511,5.44736 -3.06215,4.14178 -3.55296,9.93178 -0.84191,9.93178 0.99291,0 3.32869,-1.31038 5.19061,-2.91194 z m -74.49591,-21.46306 c 0,-1.03125 -0.81055,-1.875 -1.80123,-1.875 -2.08831,0 -3.49801,1.7841 -2.33146,2.95065 1.49395,1.49395 4.13269,0.80714 4.13269,-1.07565 z m 207.5,-9.39723 c 0,-1.04637 8.55519,-5.38926 13.4375,-6.8213 3.80854,-1.1171 3.55224,-4.1871 -0.47748,-5.7192 -3.24308,-1.23301 -3.25648,-1.28782 -0.94092,-3.8465 2.32117,-2.56486 2.31201,-2.59043 -0.77254,-2.15571 -2.2525,0.31745 -3.13152,1.21789 -3.15732,3.23423 -0.0391,3.05193 -9.61843,12.83071 -12.56905,12.83071 -2.18534,0 -2.35496,3.33769 -0.20769,4.0867 1.94264,0.67762 4.6875,-0.26451 4.6875,-1.60893 z m -11.89859,-9.95171 c 2.06894,-2.28615 2.08011,-2.53486 0.14718,-3.2766 -2.05151,-0.78724 -6.99859,2.53099 -6.99859,4.69428 0,2.00491 4.61895,1.04917 6.85141,-1.41768 z m -109.97641,-2.52606 c 0.4249,-0.6875 0.17685,-1.25 -0.55123,-1.25 -0.72807,0 -1.32377,0.5625 -1.32377,1.25 0,0.6875 0.24805,1.25 0.55123,1.25 0.30317,0 0.89887,-0.5625 1.32377,-1.25 z m 121.91396,-1.03019 c 1.54875,-1.25411 2.58199,-2.98197 2.29608,-3.8397 -0.36708,-1.10121 -1.52121,-0.77182 -3.92744,1.12091 -3.37009,2.65092 -4.44857,4.99898 -2.29608,4.99898 0.61133,0 2.37868,-1.02609 3.92744,-2.28019 z m 4.19228,-10.80083 c 2.39964,-3.66231 2.65415,-8.19014 0.45626,-8.11694 -2.51191,0.0836 -11.25786,8.41832 -10.35934,9.87218 1.58949,2.57183 7.78769,1.47325 9.90308,-1.75525 z m 15.26571,-0.56777 c 2.18595,1.81418 3.30951,0.9676 7.88634,-5.94216 5.93225,-8.95606 4.55966,-10.64799 -3.47546,-4.28405 -2.51732,1.99375 -5.96799,3.82188 -7.66818,4.0625 -1.88469,0.26674 -3.73324,1.78118 -4.73607,3.88007 -2.31003,4.83474 -0.77433,6.52351 3.1355,3.44803 2.39686,-1.88536 3.63233,-2.1815 4.85787,-1.16439 z m -36.15536,-1.82437 c 1.94337,-1.63524 4.5988,-3.18211 5.90093,-3.4375 3.25449,-0.6383 7.57988,-6.6519 6.28799,-8.74221 -1.27255,-2.05904 -0.69522,-11.24648 0.82238,-13.08714 2.00537,-2.43229 -0.19928,-2.83839 -3.89484,-0.71743 -4.52164,2.59507 -8.50089,12.00053 -6.45988,15.26871 1.64019,2.62635 0.77312,3.68873 -3.01062,3.68873 -3.08716,0 -6.73755,4.21418 -6.73755,7.77814 0,3.08221 2.90096,2.77487 7.09159,-0.7513 z m -22.71659,-0.77684 c 0.4249,-0.6875 -0.10437,-1.25 -1.17622,-1.25 -1.07183,0 -1.94878,0.5625 -1.94878,1.25 0,0.6875 0.5293,1.25 1.17622,1.25 0.64693,0 1.52388,-0.5625 1.94878,-1.25 z m 60.625,-13.75 c 0,-1.375 -0.5625,-2.5 -1.25,-2.5 -0.6875,0 -1.25,0.23525 -1.25,0.52276 0,0.28753 -0.34143,1.41253 -0.75874,2.5 -0.49789,1.29749 -0.0681,1.97724 1.25,1.97724 1.1754,0 2.00874,-1.03714 2.00874,-2.5 z m -39.0625,-16.2363 c 5.05739,-3.08355 5.59931,-7.5137 0.91913,-7.5137 -2.19193,0 -3.87492,1.20291 -5.56022,3.97419 -3.77226,6.20298 -1.97517,7.57352 4.64109,3.53951 z m 64.375,-7.57804 c 4.3653,-4.73053 4.31727,-6.44946 -0.3125,-11.18566 -4.26059,-4.35853 -4.23175,-4.2642 -2.36835,-7.74599 1.30687,-2.44192 1.13879,-2.53607 -3.10615,-1.73972 -3.723,0.69845 -4.3624,0.51513 -3.75195,-1.07565 1.30477,-3.4002 -2.84406,-3.46505 -9.84331,-0.15388 -7.13934,3.37745 -10.93024,4.05904 -10.93024,1.96524 0,-0.6875 1.70515,-1.25 3.78922,-1.25 4.28304,0 6.08105,-2.76899 3.67811,-5.66436 -1.26238,-1.52108 -1.19963,-2.29804 0.32683,-4.04659 2.40113,-2.75048 3.96058,-11.07956 2.27003,-12.12438 -0.69439,-0.42916 -2.34101,-0.20308 -3.65918,0.50237 -1.9979,1.06923 -2.9381,0.57278 -5.65083,-2.98379 -1.78981,-2.34655 -3.25418,-5.71023 -3.25418,-7.47485 0,-3.38103 -2.23809,-4.22031 -4.69702,-1.76138 -2.27968,2.27968 -5.45621,-1.02631 -4.53039,-4.71505 1.53492,-6.11562 -4.18007,-2.34078 -7.70624,5.09008 -1.82761,3.8514 -1.82753,4.5305 10e-4,8.0667 1.09821,2.12369 2.4801,3.86125 3.07088,3.86125 0.59077,0 1.99637,1.40751 3.12355,3.1278 1.8204,2.77829 1.84666,3.51987 0.23503,6.63641 -1.94668,3.76449 -1.4051,5.56981 2.05369,6.84568 1.99709,0.73667 1.92015,1.28298 -0.9375,6.6575 -3.82598,7.19568 -3.82601,7.18256 0.0125,6.21931 2.74517,-0.689 3.125,-0.38124 3.125,2.53196 0,1.82396 -0.65262,5.49455 -1.45027,8.15688 -0.79765,2.66231 -1.06858,5.22227 -0.60205,5.6888 0.46651,0.46652 2.94726,-1.1581 5.51277,-3.61027 4.24238,-4.05496 9.01955,-7.25407 10.83238,-7.25407 0.38895,0 0.70717,1.9864 0.70717,4.41422 0,5.94554 3.15969,7.14872 7.01203,2.6701 1.57742,-1.83387 3.39736,-3.33432 4.04428,-3.33432 1.42825,0 2.69369,3.04779 2.69369,6.48775 0,2.12541 0.55344,2.40365 3.4375,1.72814 1.89063,-0.44282 4.98438,-2.48142 6.875,-4.53023 z m -72.8125,-1.42356 c 0,-1.64299 -2.84098,-0.61418 -3.46383,1.25437 -0.30447,0.91344 0.26699,1.19281 1.48438,0.72564 1.0887,-0.41777 1.97945,-1.30877 1.97945,-1.98001 z m -96.25,-24.68832 c 0,-3.14388 -2.01775,-4.38348 -2.99402,-1.83937 -1.19749,3.12064 -0.89713,4.26559 1.11902,4.26559 1.03125,0 1.875,-1.0918 1.875,-2.42623 z m 11.875,-11.32378 c 0,-0.91666 -0.70313,-1.90104 -1.5625,-2.1875 -0.92949,-0.30983 -1.5625,0.57639 -1.5625,2.1875 0,1.61111 0.63301,2.49733 1.5625,2.1875 0.85937,-0.28646 1.5625,-1.27084 1.5625,-2.1875 z m 40,0 c 0.4249,-0.6875 0.17685,-1.25 -0.55123,-1.25 -0.72807,0 -1.32377,0.5625 -1.32377,1.25 0,0.6875 0.24805,1.25 0.55123,1.25 0.30317,0 0.89887,-0.5625 1.32377,-1.25 z m 174.99996,-7.5 c 1.796,-1.98454 1.8875,-2.5 0.4438,-2.5 -1.9606,0 -4.8188,2.37251 -4.8188,4 0,1.77119 2.051,1.06799 4.375,-1.5 z m -63.947,-7.26884 c 5.06855,-5.3268 4.10423,-8.12331 -2.92986,-8.4965 -6.13379,-0.32542 -9.90162,2.09597 -13.23729,8.5069 -2.03826,3.91742 -0.69965,5.39059 3.85863,4.24653 1.63753,-0.41099 3.32721,-0.18118 3.75481,0.5107 1.0236,1.65622 4.04221,-0.0263 8.55371,-4.76763 z m -68.53589,-4.00878 c 1.32915,-2.15062 -4.85267,-3.99842 -9.41851,-2.81528 -2.99668,0.77651 -5.74345,0.55674 -9.37849,-0.75041 -5.96006,-2.14324 -10.52812,-1.21334 -8.14507,1.65806 1.82156,2.19485 4.28314,2.62633 16.55909,2.90256 5.29875,0.11925 9.9711,-0.32848 10.38298,-0.99493 z m 64.98293,-11.22238 c 1.24436,-1.375 1.80686,-2.5 1.25,-2.5 -0.55686,0 0.006,-1.125 1.25,-2.5 2.18329,-2.41251 2.18329,-2.58749 0,-5 -1.24436,-1.375 -3.02975,-2.5 -3.96755,-2.5 -1.19457,0 -1.47025,-0.93564 -0.92075,-3.125 0.87226,-3.47539 -1.40651,-4.19245 -5.81887,-1.83102 -3.19743,1.71121 -3.05683,3.22482 0.39467,4.24906 l 2.8125,0.83461 -2.8928,1.1756 c -3.16951,1.28805 -2.62116,3.69675 0.84158,3.69675 3.79512,0 5.42363,2.65476 3.16171,5.15416 -1.87105,2.06748 -1.50149,4.84584 0.64455,4.84584 0.54037,0 2.0006,-1.125 3.24496,-2.5 z m -278.36296,-3.4375 c -0.50742,-2.6348 -2.72585,-2.46866 -3.29119,0.24647 -0.23581,1.13248 0.45324,1.94103 1.65415,1.94103 1.28745,0 1.90054,-0.81925 1.63704,-2.1875 z m 233.29208,-0.59064 c 2.50295,-3.57346 2.46353,-5.50575 -0.13265,-6.502 -2.29597,-0.88105 -9.17147,4.84563 -9.17147,7.639 0,2.83494 7.13259,1.96331 9.30412,-1.137 z M 974.68054,718.982 c 4.21935,-2.19923 5.6587,-2.41806 8.22231,-1.25 4.40033,2.00493 10.06026,1.75513 13.65896,-0.60283 3.82829,-2.50838 3.82439,-3.10329 -0.0596,-9.25608 -2.51823,-3.98912 -3.8808,-4.97516 -6.875,-4.97516 -2.05389,0 -3.73433,0.5625 -3.73433,1.25 0,0.69748 -3.45325,1.26044 -7.8125,1.27362 l -7.8125,0.0236 -3.44302,7.0867 c -2.6258,5.40462 -3.07084,7.32299 -1.875,8.08224 2.43196,1.54406 4.20894,1.24601 9.73072,-1.6321 z m 17.73314,-21.31323 c -1.9094,-1.9094 -3.3183,-0.50049 -2.25929,2.25927 0.6253,1.62948 1.1674,1.79094 2.27942,0.67891 1.11204,-1.11203 1.10724,-1.81081 -0.0201,-2.93818 z M 802.68689,695.5289 c 0.38037,-0.61545 -0.19494,-1.4592 -1.27846,-1.875 -3.12064,-1.19748 -4.26559,-0.89712 -4.26559,1.11903 0,2.01245 4.39695,2.61202 5.54405,0.75597 z M 635.89284,655.39793 c 0,-1.375 -0.81055,-2.5 -1.80123,-2.5 -2.20823,0 -3.62007,2.05705 -2.57377,3.75 1.35936,2.1995 4.375,1.33789 4.375,-1.25 z m 244.74277,-4.46053 c 2.99095,-2.09493 2.65553,-4.28947 -0.65562,-4.28947 -2.1795,0 -6.58715,3.47527 -6.58715,5.19374 0,1.72985 4.23735,1.20082 7.24277,-0.90427 z m 21.76488,-19.14981 c 1.60622,-0.61068 3.6456,-2.46536 4.53194,-4.1215 1.9716,-3.68396 5.16765,-5.7507 13.32605,-8.61735 7.12845,-2.50473 9.22643,-6.1512 3.53851,-6.15018 -5.33741,9.6e-4 -16.50893,4.66738 -20.8879,8.72504 -2.14019,1.98314 -5.24638,4.67755 -6.90264,5.98758 -5.07994,4.018 -0.70511,6.87551 6.39404,4.17641 z m -19.00765,-52.09684 c 0,-3.08582 -2.41154,-6.79282 -4.41897,-6.79282 -2.13635,0 -2.38117,2.88642 -0.53705,6.33217 1.55175,2.89947 4.95602,3.21588 4.95602,0.46065 z m -150,-2.41782 c 0,-1.16031 -1.1762,-1.875 -3.08578,-1.875 -2.22935,0 -2.88607,0.52039 -2.36626,1.875 0.39574,1.03125 1.78433,1.875 3.08578,1.875 1.30144,0 2.36626,-0.84375 2.36626,-1.875 z m -69.42839,-1.78863 c 0.92444,-1.49574 -1.42702,-2.97778 -3.092,-1.94877 -1.39795,0.86397 -0.48021,3.1124 1.27039,3.1124 0.60635,0 1.42607,-0.52364 1.82161,-1.16363 z m 247.90025,-2.03225 c 4.76145,-3.33505 2.33369,-7.90403 -3.15936,-5.94585 -4.2589,1.51824 -5.33719,3.00997 -3.99225,5.52299 1.54025,2.87798 3.48249,2.99281 7.15161,0.42286 z m -8.16092,-8.52366 c 0.51476,-0.773 0.7864,-2.24921 0.60365,-3.28046 -0.25955,-1.46451 -1.83272,-1.77726 -7.18594,-1.42858 -8.92596,0.58143 -11.15329,3.74747 -4.53824,6.45092 3.17002,1.29552 9.78816,0.25888 11.12053,-1.74188 z m -223.3618,-2.15041 c 0.46567,-0.75348 0.0514,-2.16523 -0.9206,-3.13722 -1.49414,-1.49414 -2.12609,-1.50492 -4.08888,-0.0696 -1.27687,0.93367 -1.92121,2.34543 -1.43186,3.13722 1.12949,1.82754 5.32685,1.87294 6.44134,0.0696 z m 316.22726,-8.54689 c -0.45318,-0.73324 -1.42213,-1.33316 -2.15322,-1.33316 -0.82888,0 -0.73404,0.71722 0.25189,1.90521 1.71443,2.06575 3.24667,1.60475 1.90133,-0.57205 z m -110.6764,-3.89601 c 0,-2.6523 -4.49194,-6.18715 -7.86236,-6.18715 -1.80052,0 -2.1268,0.61662 -1.48825,2.8125 1.79305,6.1661 9.35061,8.89363 9.35061,3.37465 z m -187.5,0.0236 c 0,-1.49646 -3.52577,-3.10166 -4.55408,-2.07336 -1.09463,1.09464 0.76207,3.36259 2.75285,3.36259 0.99068,0 1.80123,-0.58015 1.80123,-1.28923 z m 300.71707,-4.67803 c -2.15968,-2.06278 -2.19321,-2.02925 -0.76181,0.76182 0.8235,1.60575 1.8401,2.57674 2.2591,2.15774 0.419,-0.419 -0.2548,-1.7328 -1.49729,-2.91956 z m -480.01173,-6.66273 c 1.25239,-2.0264 -4.44859,-6.99879 -9.14284,-7.97436 -5.87069,-1.22008 -5.2239,1.70012 1.28663,5.80909 6.11393,3.85867 6.70837,4.02251 7.85621,2.16527 z m 99.12305,-15.9875 c 1.43732,-0.91063 1.43606,-1.63982 -0.009,-4.66836 -1.34887,-2.82866 -2.90165,-3.81628 -7.32839,-4.66109 -7.07126,-1.3495 -19.14961,1.31936 -19.72905,4.35939 -0.70842,3.71674 22.35821,7.95247 27.06556,4.97006 z m 24.60361,-8.14461 c 2.36474,-1.72915 2.36559,-1.81098 0.0451,-4.375 -1.3005,-1.4371 -3.42047,-2.6129 -4.71101,-2.6129 -1.29052,0 -4.29709,-0.81505 -6.68126,-1.81121 -3.19113,-1.33334 -4.32751,-1.41579 -4.30705,-0.3125 0.045,2.42472 4.05817,6.84996 8.0972,8.9285 4.58509,2.35956 4.58066,2.35945 7.557,0.18311 z m -29.34983,-12.03187 c 5.66399,-3.03128 1.41519,-6.18115 -10.90438,-8.08406 -2.85846,-0.44151 -6.23346,-1.58794 -7.5,-2.54761 -2.89056,-2.19021 -15.85839,-2.49116 -15.14516,-0.35147 0.60974,1.82925 24.27973,12.03487 28.23704,12.17477 1.59208,0.0562 3.9827,-0.47995 5.3125,-1.19163 z m 9.29283,0.044 c -0.4249,-0.6875 -1.33504,-1.25 -2.02254,-1.25 -0.6875,0 -0.90236,0.5625 -0.47746,1.25 0.4249,0.6875 1.33504,1.25 2.02254,1.25 0.6875,0 0.90236,-0.5625 0.47746,-1.25 z m 240.47222,510.31246 c -8.55748,-10.4563 -15.91657,-24.74311 -13.82336,-26.83632 2.00703,-2.00703 3.35896,-0.33298 5.20456,6.44465 0.94793,3.48106 2.16476,6.32921 2.70404,6.32921 0.5393,0 2.96888,1.74576 5.39904,3.87946 3.42922,3.0109 4.4185,4.8301 4.4185,8.125 0,4.7132 -1.20834,5.3504 -3.90278,2.058 z m 15.25147,-12.2916 c 0.06,-1.45621 0.35617,-1.7524 0.7552,-0.7552 0.36109,0.9023 0.31668,1.9804 -0.0986,2.3958 -0.41536,0.4154 -0.7108,-0.3229 -0.65652,-1.6406 z m -12.13925,-54.87657 c -0.93058,-2.42504 3.46162,-9.89763 6.1183,-10.40927 1.68175,-0.32387 1.98915,0.47367 1.64798,4.27569 -0.55541,6.1897 -6.07267,10.54706 -7.76628,6.13358 z m 19.81269,-8.33742 c 0.30802,-0.92502 1.56258,-1.87622 2.78791,-2.11375 1.42502,-0.27625 2.02606,0.17422 1.66783,1.25 -0.30802,0.92503 -1.56258,1.87623 -2.78791,2.11375 -1.42502,0.27625 -2.02606,-0.17421 -1.66783,-1.25 z m -20.27213,-14.80687 c 0,-0.6875 0.5957,-1.25 1.32378,-1.25 0.72807,0 0.97612,0.5625 0.55122,1.25 -0.4249,0.6875 -1.0206,1.25 -1.32378,1.25 -0.30317,0 -0.55122,-0.5625 -0.55122,-1.25 z m -320,-10.58504 c 0,-1.74504 21.25162,-6.00461 65.76912,-13.18245 8.09731,-1.30559 15.0393,-1.62427 14.06052,-0.64549 -2.12279,2.1228 -79.82964,15.58303 -79.82964,13.82794 z m 348.75,-4.41496 c 0,-0.6875 0.87695,-1.25 1.94878,-1.25 1.07182,0 1.60112,0.5625 1.17622,1.25 -0.4249,0.6875 -1.30185,1.25 -1.94878,1.25 -0.64692,0 -1.17622,-0.5625 -1.17622,-1.25 z m -6.25,-15 c 0,-0.6875 0.5957,-1.25 1.32378,-1.25 0.72807,0 0.97612,0.5625 0.55122,1.25 -0.4249,0.6875 -1.0206,1.25 -1.32378,1.25 -0.30317,0 -0.55122,-0.5625 -0.55122,-1.25 z m 5.625,-3.75 c 0.4249,-0.6875 1.72372,-1.24139 2.88628,-1.23086 1.82158,0.0165 1.85458,0.18661 0.23872,1.23086 -2.44796,1.582 -4.10273,1.582 -3.125,0 z m -171.875,-27.36626 c 0,-1.78538 3.45537,-2.63374 10.72724,-2.63374 7.40412,0 9.07223,1.7276 2.86651,2.96875 -5.7295,1.1459 -13.59375,0.95209 -13.59375,-0.33501 z M 1114.0178,734.89485 c -15.4206,-5.21503 -28.3504,-6.54012 -39.1754,-4.01483 -4.2415,0.98948 -7.3794,1.26116 -6.9731,0.60372 1.3516,-2.1869 -2.2261,-4.83581 -6.5313,-4.83581 -3.319,0 -4.5603,-0.68386 -5.6726,-3.125 -0.7831,-1.71875 -1.8058,-3.125 -2.2726,-3.125 -1.3226,0 -3.867,-6.29942 -3.0671,-7.59368 1.2917,-2.09002 7.2257,-1.20831 10.1111,1.50239 2.1045,1.97705 2.6518,3.54993 2.1349,6.13474 -0.9101,4.55039 2.5891,6.55304 9.515,5.44554 3.0519,-0.48802 6.5346,-0.17992 8.8616,0.78396 5.8098,2.40654 7.7889,-0.39026 2.2757,-3.21599 -6.4612,-3.31159 -7.7706,-6.07359 -3.4188,-7.2116 1.7784,-0.46506 2.414,-1.34351 1.9142,-2.64579 -1.0464,-2.72682 2.4816,-2.52307 12.6621,0.73125 13.6385,4.35974 23.5605,9.59129 30.8827,16.28334 3.7833,3.45768 6.8786,6.79275 6.8786,7.41126 0,2.08169 -5.5528,1.12323 -18.125,-3.1285 z m -83.125,-18.24692 c 0,-0.6875 0.5957,-1.25 1.3238,-1.25 0.7281,0 0.9761,0.5625 0.5512,1.25 -0.4249,0.6875 -1.0206,1.25 -1.3237,1.25 -0.3032,0 -0.5513,-0.5625 -0.5513,-1.25 z m 63.4375,-7.14314 c -2.677,-0.66105 -2.8845,-3.91785 -0.3125,-4.90482 1.0313,-0.39574 1.875,-1.46518 1.875,-2.37654 0,-2.3435 4.7687,-3.57358 6.9229,-1.78575 1.179,0.97845 1.53,2.63649 1.0142,4.79077 -0.4338,1.81197 -0.8502,3.35598 -0.9254,3.43113 -0.6606,0.66064 -6.8506,1.27081 -8.5742,0.84521 z m -60.0825,-5.02946 c -0.3085,-0.52383 -0.9413,-2.72698 -1.4061,-4.8959 -1.2002,-5.60001 1.4633,-6.77736 5.0777,-2.24449 1.5746,1.97466 3.2359,3.21718 3.6919,2.76116 0.4561,-0.45602 -0.082,-1.73983 -1.1946,-2.85293 -4.3872,-4.3872 -0.6596,-10.54626 3.9602,-6.54342 1.1775,1.02027 3.9337,2.19235 6.1249,2.60465 3.6034,0.67802 4.0214,0.43359 4.375,-2.55835 0.4501,-3.80744 4.0996,-5.26171 11.016,-4.38971 3.3042,0.41657 5.0635,1.61186 7.1875,4.88326 3.9938,6.15106 3.5903,7.62182 -2.5,9.11083 -2.9218,0.71437 -7.2812,1.95585 -9.6875,2.75884 -5.1013,1.70235 -25.8212,2.76463 -26.645,1.36606 z m 14.145,-4.0774 c 0,-0.6875 -0.8437,-1.25 -1.875,-1.25 -1.0312,0 -1.875,0.5625 -1.875,1.25 0,0.6875 0.8438,1.25 1.875,1.25 1.0313,0 1.875,-0.5625 1.875,-1.25 z M 840.31669,658.53329 c -2.03564,-1.6636 -3.35496,-3.37092 -2.93184,-3.79405 0.42314,-0.42312 2.65115,0.94175 4.95115,3.03304 4.9553,4.50565 3.31784,5.12275 -2.01931,0.76101 z m -30.2425,-25.06427 c -1.17973,-3.07429 0.22194,-3.3356 3.45407,-0.64393 l 2.98958,2.48966 -2.85173,0.0416 c -1.56846,0.0229 -3.18482,-0.82642 -3.59192,-1.88732 z m -8.55635,-9.90734 c -2.0625,-1.69061 -3.1875,-3.09127 -2.5,-3.11259 0.6875,-0.0213 2.9375,1.34449 5,3.03509 2.0625,1.69061 3.1875,3.09128 2.5,3.11259 -0.6875,0.0213 -2.9375,-1.34449 -5,-3.03509 z m -8.54932,-7.94201 c -2.34364,-2.58969 -2.64625,-3.97174 -0.86966,-3.97174 1.33612,0 4.30354,4.9071 3.47093,5.73972 -0.28909,0.28908 -1.45966,-0.50651 -2.60128,-1.76798 z m -10.25208,-7.8049 c -0.45316,-0.73324 -0.52379,-1.63331 -0.15694,-2.00018 0.8954,-0.89539 3.33334,0.68229 3.33334,2.15711 0,1.59747 -2.15801,1.49084 -3.1764,-0.15693 z m -5.5736,-4.29184 c -1.30009,-1.5665 -1.1196,-1.875 1.09695,-1.875 1.52494,0 2.65305,0.79727 2.65305,1.875 0,1.03125 -0.49363,1.875 -1.09695,1.875 -0.60331,0 -1.79719,-0.84375 -2.65305,-1.875 z m -348.4375,-252.7753 c -0.85938,-0.30692 -1.5625,-1.47544 -1.5625,-2.59672 0,-1.85558 0.1898,-1.8489 2.1131,0.0744 2.25981,2.25982 2.0034,3.43446 -0.5506,2.52232 z m -14.08758,-14.75491 c -2.41546,-2.91046 -0.69193,-3.45894 1.89314,-0.60245 1.24818,1.37921 1.6886,2.50766 0.97873,2.50766 -0.70988,0 -2.00221,-0.85734 -2.87187,-1.90521 z m -10.67154,-11.11759 c -1.33344,-0.97504 -2.09376,-2.10349 -1.68958,-2.50766 0.40417,-0.40418 1.75609,0.39358 3.00426,1.7728 2.65555,2.93434 2.11018,3.23918 -1.31468,0.73486 z m 493.47936,796.05577 c 1.18676,-1.2426 2.50056,-1.9163 2.91956,-1.4973 0.419,0.419 -0.55199,1.4356 -2.15774,2.2591 -2.79107,1.4314 -2.8246,1.3978 -0.76182,-0.7618 z m -20.90774,-6.4896 c -2.33911,-1.7185 -5.625,-8.7931 -5.625,-12.1108 0,-1.8187 -0.83335,-4.9182 -1.8519,-6.8879 -1.42434,-2.7544 -1.64079,-5.6746 -0.9375,-12.6488 1.2919,-12.8111 3.4217,-12.4184 5.33194,0.9833 0.86202,6.0477 1.62697,12.9484 1.69988,15.3349 0.0973,3.1827 0.888,4.7154 2.96722,5.7513 4.26543,2.1251 4.38682,2.4888 2.22543,6.6685 -2.22028,4.2935 -2.0761,4.1834 -3.81007,2.9095 z m 24.375,-12.6891 c 0,-3.4167 -0.42987,-3.9984 -2.8125,-3.8054 -5.02975,0.4075 -5.37654,-0.031 -1.58751,-2.0066 2.40345,-1.2532 3.8817,-1.4722 4.16667,-0.6173 0.24292,0.7288 1.5198,1.325 2.8375,1.325 3.18541,0 3.12553,3.9522 -0.10412,6.875 -2.45093,2.2181 -2.5,2.1833 -2.5,-1.7707 z m -23.09263,-7.9168 c 1.16668,-5.5368 2.16809,-6.3218 8.22948,-6.451 5.92551,-0.1262 7.96166,2.3525 3.40225,4.1417 -1.60275,0.629 -3.89298,2.3199 -5.08936,3.7577 -1.1964,1.4378 -3.35047,2.6141 -4.78683,2.6141 -2.28862,0 -2.5057,-0.5023 -1.75554,-4.0625 z M 581.90708,1058.951 c -1.74042,-2.6212 -2.21959,-2.7122 -6.89979,-1.3099 -2.76623,0.8287 -6.75916,1.5068 -8.8732,1.5068 -9.06275,0 -6.35969,-4.9411 14.36845,-26.265 9.49591,-9.7688 17.2653,-18.4024 17.2653,-19.1858 0,-0.8765 -1.89846,-1.3073 -4.93674,-1.1202 -3.31665,0.2043 -12.43257,4.0811 -27.77817,11.8136 -20.38228,10.2704 -23.68625,11.5556 -30.68827,11.9371 -11.02468,0.6007 -12.2101,-0.5568 -7.52748,-7.3507 6.29407,-9.1319 21.68431,-22.617 23.61212,-20.6892 0.32579,0.3258 -2.25364,3.4384 -5.73206,6.9168 -11.54844,11.5484 -8.05284,11.8246 12.77284,1.0092 23.11058,-12.002 47.15276,-27.06437 47.15276,-29.5411 0,-0.54495 -2.50794,-1.3669 -5.5732,-1.82656 -5.01289,-0.75174 -6.74087,-0.23845 -17.1875,5.10538 -6.38786,3.26762 -13.02055,6.8791 -14.7393,8.02548 -3.2499,2.1677 -15.91114,3.9806 -16.87767,2.4167 -1.00482,-1.62582 -18.60849,-2.56357 -23.12233,-1.23173 -2.40625,0.70997 -7.35621,0.92893 -10.99991,0.48663 -9.43685,-1.14558 -8.32867,-3.92777 2.93412,-7.36638 8.9633,-2.73655 19.31579,-7.84035 19.31579,-9.52271 0,-0.51049 -0.98438,-1.13743 -2.1875,-1.39319 -2.63939,-0.56109 12.35051,-10.60571 22.06154,-14.78329 3.50677,-1.50858 6.37596,-3.18404 6.37596,-3.72324 0,-0.53921 -2.95313,-1.23029 -6.5625,-1.53572 -3.60938,-0.30544 -11.7637,-2.57832 -18.12071,-5.05085 -10.78479,-4.1947 -12.03945,-4.4167 -18.75,-3.31759 -10.31719,1.68982 -19.39229,1.54389 -18.777,-0.30195 0.27396,-0.82189 2.06877,-1.91441 3.98847,-2.42781 1.9197,-0.51342 4.4143,-1.75233 5.54355,-2.75315 1.12925,-1.00083 4.59846,-3.0045 7.70935,-4.4526 10.19426,-4.74538 13.3894,-16.75048 4.9095,-18.44645 -4.11611,-0.82323 -5.81399,-2.5527 -4.14425,-4.22137 0.59323,-0.59283 4.73484,-1.5282 9.20359,-2.07857 7.08932,-0.87314 8.17552,-1.3562 8.52135,-3.78968 0.30711,-2.16095 1.85525,-3.22418 6.875,-4.72167 10.93925,-3.26339 59.47615,-11.26321 90.22865,-14.87145 12.91542,-1.51539 22.90685,-3.85808 24.88314,-5.83436 0.30515,-0.30515 -3.76248,-0.64847 -9.03917,-0.76292 -12.10213,-0.2625 -57.4602,-7.94786 -72.58063,-12.2979 -13.87888,-3.99283 -25.52145,-8.62206 -26.10768,-10.38072 -1.66036,-4.9811 19.85785,-4.9998 54.71934,-0.0475 16.24476,2.30765 25.33255,2.76874 56.25,2.85394 20.28125,0.0559 40.10937,-0.36074 44.0625,-0.92584 6.39046,-0.9135 7.1875,-1.34918 7.1875,-3.92876 0,-3.38254 1.38926,-4.06642 10.29727,-5.06884 12.79693,-1.44011 28.45273,-7.00709 28.45273,-10.11743 0,-0.95291 -0.62267,-1.73257 -1.38374,-1.73257 -0.76105,0 -1.04312,-0.88763 -0.62681,-1.97251 0.44314,-1.1548 -1.44463,-5.68897 -4.55376,-10.9375 -4.93059,-8.32334 -5.35543,-9.7631 -5.93569,-20.11609 -0.64244,-11.46221 -2.77223,-15.5213 -4.35731,-8.30445 -0.45927,2.09104 -1.38895,4.14422 -2.06597,4.56264 -0.67701,0.41842 -1.74481,2.11237 -2.37288,3.76433 -1.10269,2.90028 -3.70384,4.20253 -3.70384,1.85432 0,-0.6321 -2.72691,-4.14773 -6.05981,-7.8125 -6.89174,-7.57802 -8.94019,-10.97034 -8.94019,-14.80538 0,-2.30999 -0.50338,-2.57094 -3.63319,-1.88352 -3.8328,0.84182 -4.08351,0.68748 -14.66705,-9.0293 -5.46258,-5.01522 -7.93033,-11.02979 -7.94278,-19.35873 -0.006,-3.92052 -0.50143,-4.78778 -3.1099,-5.44246 -1.70662,-0.42834 -5.87852,-0.113 -9.27089,0.70088 -7.31345,1.75447 -9.17054,1.02113 -16.8291,-6.64561 -2.85648,-2.85951 -6.44565,-6.17052 -7.97595,-7.3578 -1.68888,-1.31028 -3.10436,-4.17228 -3.60166,-7.28222 -0.66769,-4.1755 -1.71035,-5.68608 -5.63478,-8.16345 -2.64851,-1.67192 -6.20836,-5.24636 -7.91079,-7.94317 -1.70242,-2.69682 -5.70882,-6.70144 -8.90311,-8.89917 l -5.80779,-3.99586 0.82233,-7.26844 c 0.9586,-8.47291 0.31894,-9.12166 -10.15564,-10.29976 -8.01411,-0.90137 -13.00115,-3.39017 -16.82241,-8.39531 -1.61276,-2.11242 -5.60416,-6.91305 -8.86979,-10.66808 -3.26562,-3.75504 -5.9375,-7.76877 -5.9375,-8.91944 0,-1.15066 1.18076,-4.53123 2.62391,-7.51238 1.44314,-2.98114 2.31392,-6.22809 1.93503,-7.21544 -0.37888,-0.98735 -4.64328,-2.99629 -9.47644,-4.46431 -10.99965,-3.34104 -14.20299,-5.84122 -16.22285,-12.66177 -1.80417,-6.09221 -3.74414,-10.42065 -8.25191,-18.41162 -1.78661,-3.16715 -3.10774,-7.5125 -3.10774,-10.22178 0,-5.65237 -3.28385,-8.73874 -11.84954,-11.137 -6.64228,-1.85972 -10.35951,-5.77633 -15.90285,-16.75588 -5.25929,-10.41694 -6.06454,-13.74862 -4.3932,-18.1765 1.23588,-3.27422 1.05608,-4.11778 -1.44519,-6.78025 -3.96546,-4.22104 -7.89926,-4.71163 -20.01598,-2.49624 -15.4692,2.82836 -17.50408,2.1222 -30.52526,-10.59319 -14.89907,-14.54915 -22.11798,-24.22964 -22.11798,-29.65994 0,-4.72671 2.56236,-6.79512 8.41782,-6.79512 3.99132,0 6.58218,-1.9709 6.58218,-5.00715 0,-3.61566 -5.7403,-9.89586 -16.3977,-17.94 -9.82809,-7.41816 -32.3523,-30.61966 -32.3523,-33.3251 0,-1.89117 3.41276,-1.48054 12.78685,1.5386 9.56999,3.08221 12.83815,2.34331 12.83815,-2.90259 0,-2.7778 -0.57349,-3.0351 -8.125,-3.64532 -11.65198,-0.94157 -18.0117,-4.77623 -42.5,-25.62581 -6.53125,-5.56078 -14.83121,-12.55964 -18.44438,-15.55303 -3.61314,-2.99339 -6.34016,-5.67173 -6.06002,-5.95186 0.28014,-0.28015 6.5537,2.34176 13.94124,5.82646 13.66071,6.44372 16.81316,7.3819 16.81316,5.00363 0,-3.37958 -2.98385,-6.12762 -8.7234,-8.03399 -3.43595,-1.14125 -6.56301,-2.58599 -6.94901,-3.21055 -0.386,-0.62456 -4.53322,-3.37323 -9.21603,-6.10813 -4.6828,-2.73491 -10.98297,-7.03699 -14.00037,-9.56017 -3.0174,-2.52319 -6.89244,-5.19152 -8.61119,-5.92962 -1.71875,-0.7381 -5.375,-2.83185 -8.125,-4.65278 -2.75,-1.82093 -9.46115,-5.74888 -14.91367,-8.7288 -5.45251,-2.97991 -9.30485,-5.62095 -8.56075,-5.86898 2.82845,-0.94282 22.60634,7.92602 70.29513,31.52188 27.12639,13.42182 49.76701,24.40331 50.3125,24.40331 2.20254,0 0.75624,-3.51861 -3.2393,-7.88073 -2.3271,-2.5406 -5.36762,-4.61927 -6.75673,-4.61927 -1.3891,0 -4.88209,-1.96875 -7.76218,-4.375 -2.88009,-2.40625 -5.72408,-4.375 -6.31996,-4.375 -0.59589,0 -3.31107,-2.25 -6.03371,-5 -2.72266,-2.75 -5.76079,-5 -6.75143,-5 -0.99062,0 -3.92457,-1.6875 -6.5199,-3.75 -2.59533,-2.0625 -5.41629,-3.75 -6.26883,-3.75 -0.85253,0 -2.32206,-0.93517 -3.26562,-2.07814 -0.94355,-1.14298 -4.1122,-3.14072 -7.04144,-4.43942 -2.92923,-1.2987 -6.19104,-3.68165 -7.24843,-5.29545 -1.91913,-2.92895 -5.57159,-4.80464 -12.16487,-6.24717 -2.23491,-0.48898 -4.9286,-2.8055 -7.49338,-6.44418 -2.7706,-3.93069 -6.50932,-7.01954 -12.13581,-10.02633 -5.19985,-2.7788 -12.86371,-8.91212 -21.25662,-17.01149 -12.18169,-11.75565 -12.67581,-12.41288 -6.875,-9.1447 3.4375,1.93669 23.125,14.61014 43.75,28.16323 51.8912,34.09872 99.53166,62.52365 104.79024,62.52365 2.16433,0 2.88741,-4.43696 1.12812,-6.92241 -0.5051,-0.71359 -5.98086,-4.6085 -12.16836,-8.65538 -6.1875,-4.04687 -13.62806,-9.50991 -16.53458,-12.14008 -2.90651,-2.63017 -6.12724,-4.78213 -7.15718,-4.78213 -1.02994,0 -3.66319,-1.96772 -5.85168,-4.3727 -2.18848,-2.40499 -6.30088,-5.73338 -9.13866,-7.39642 -2.83776,-1.66305 -5.94742,-4.49581 -6.91034,-6.29503 -0.96291,-1.79922 -3.75477,-4.48491 -6.20415,-5.9682 -6.73373,-4.07781 -13.91435,-10.44755 -16.41735,-14.5634 -1.23121,-2.02457 -3.54301,-4.07904 -5.13731,-4.56549 -4.09973,-1.2509 -7.27375,-4.32767 -7.27375,-7.05087 0,-1.27855 -1.62865,-3.31508 -3.61923,-4.52562 -4.29128,-2.60968 -13.80796,-13.17986 -16.34455,-18.15388 -0.98634,-1.93414 -3.36747,-4.44647 -5.29139,-5.58296 -1.92392,-1.13649 -3.84752,-3.16745 -4.27466,-4.51324 -0.42714,-1.3458 -3.37954,-5.28544 -6.56089,-8.75477 -9.62564,-10.49695 0.1642,-1.8034 27.2178,24.16988 30.02391,28.825 36.95216,34.97254 60.74792,53.90256 23.5802,18.75855 62.61913,46.17014 65.75439,46.17014 3.79376,0 2.74227,-2.7899 -2.8267,-7.5 -2.84502,-2.40625 -9.26767,-8.03125 -14.27254,-12.5 -5.00489,-4.46875 -13.09176,-11.5 -17.97084,-15.625 -4.87908,-4.125 -9.97108,-8.625 -11.31556,-10 -1.34447,-1.375 -4.4884,-4.54531 -6.98649,-7.04514 -2.49809,-2.49982 -5.74355,-5.76553 -7.21212,-7.25711 -1.46858,-1.49159 -5.02761,-5.07128 -7.90896,-7.95486 -2.88135,-2.88359 -6.5376,-7.03069 -8.125,-9.21578 -1.5874,-2.18508 -7.19403,-8.93508 -12.45918,-15 -8.60033,-9.90669 -19.15448,-24.15211 -17.89384,-24.15211 0.26901,0 10.48524,11.10937 22.70273,24.6875 38.49588,42.78308 69.77017,72.38614 102.26411,96.79933 14.35418,10.7845 34.33373,23.66781 41.06761,26.48141 2.53404,1.05878 7.26798,4.1304 10.51987,6.8258 5.84809,4.84734 19.7536,13.26921 42.78752,25.91431 6.53125,3.5855 16.65625,9.21617 22.5,12.51261 5.84375,3.29643 18.21875,9.8276 27.5,14.51371 12.47498,6.29864 18.22485,9.98626 22.05196,14.14278 3.5082,3.81015 6.1937,5.62255 8.33113,5.62255 1.73478,0 7.10583,2.39062 11.93567,5.3125 4.82984,2.92188 12.89333,7.79362 17.91888,10.82611 5.02555,3.03249 14.38756,9.21999 20.80446,13.75 32.32748,22.82158 37.51424,24.01785 31.45039,7.25379 -1.70078,-4.70198 -4.85659,-9.98732 -7.9964,-13.3924 -4.85158,-5.26145 -5.37903,-6.57785 -8.16095,-20.36799 -2.15766,-10.69563 -2.5978,-15.11935 -1.60323,-16.11392 0.75402,-0.75401 4.20624,-1.64337 7.67162,-1.97635 7.38557,-0.70965 10.88458,-3.5947 7.01727,-5.78595 -3.64534,-2.06548 -23.01904,-21.74089 -22.20705,-22.55288 1.35849,-1.35848 6.11965,-0.73063 29.37991,3.8743 21.11829,4.18088 23.66119,4.45366 25.39106,2.72378 1.72989,-1.72989 1.61136,-2.2921 -1.18358,-5.6137 -3.61124,-4.29171 -21.66348,-18.14265 -39.55114,-30.3464 -4.46875,-3.04878 -9.8125,-7.09103 -11.875,-8.98275 -2.0625,-1.89174 -5.15625,-4.58375 -6.875,-5.98225 -2.67269,-2.17468 -2.7933,-2.54874 -0.83326,-2.5843 4.36521,-0.0793 22.75529,5.18463 33.18438,9.49847 5.76188,2.38332 25.44938,11.8661 43.75,21.07288 36.22993,18.22671 43.91378,21.15787 47.10321,17.96845 1.75435,-1.75435 1.16241,-2.69229 -6.16265,-9.76495 -4.45689,-4.30331 -9.4114,-8.70068 -11.01005,-9.77193 -10.18272,-6.8234 -38.61383,-34.4964 -47.81963,-46.54451 -7.17549,-9.39095 -17.44426,-26.1844 -16.55491,-27.07376 1.31532,-1.31531 6.33195,0.66925 15.84291,6.2674 10.23459,6.02407 18.72306,12.55852 70.4158,54.2062 18.96064,15.27616 35.87299,28.126 37.583,28.55519 9.52653,2.391 5.76306,-5.22205 -13.63405,-27.58003 -17.04861,-19.651 -20.81546,-24.28529 -28.30643,-34.82483 -11.44982,-16.10952 -33.73221,-59.55017 -30.54559,-59.55017 3.66441,0 18.3663,11.05526 28.86809,21.70771 6.19071,6.27951 18.49984,20.13604 27.35367,30.79229 25.13331,30.24989 35.76551,40.64564 35.76551,34.9701 0,-0.70394 -4.2648,-8.64501 -9.47734,-17.64684 -12.02535,-20.76725 -35.52266,-68.97631 -35.52266,-72.88128 0,-2.17693 9.03045,4.44539 16.81258,12.32919 20.59422,20.86331 54.01883,68.49577 73.75338,105.10383 7.65048,14.19181 10.3943,18.125 12.64415,18.125 2.50633,0 2.25031,-4.52036 -0.74987,-13.24056 -3.6863,-10.71442 -7.46163,-30.38855 -7.45135,-38.83079 0.0156,-12.81251 1.48741,-24.17865 3.13092,-24.17865 0.84058,0 3.26614,4.64062 5.39017,10.3125 5.34876,14.2831 20.64233,64.36006 23.99728,78.57625 10.55951,44.74459 10.798,45.53442 15.6615,51.87001 10.0866,13.13953 12.724,23.36982 13.5208,52.44644 0.3746,13.66902 0.015,19.08891 -1.6944,25.51295 -3.7501,14.09615 -6.6922,36.06949 -5.161,38.5447 0.4303,0.69555 9.0541,1.49379 19.5208,1.8069 10.3125,0.3085 20.7188,1.19644 23.125,1.97319 2.4063,0.77675 10.2813,5.07191 17.5,9.54481 9.4504,5.85563 14.5272,9.95087 18.1332,14.62717 2.7545,3.57204 7.817,8.14223 11.25,10.15597 7.6126,4.46537 28.8599,23.74215 31.1289,28.24187 0.9047,1.79424 1.394,3.96536 1.0873,4.82474 -0.3067,0.85937 0.014,1.5625 0.7129,1.5625 0.6988,0 1.2218,1.71365 1.1623,3.80812 -0.06,2.09447 0.5405,4.45697 1.3336,5.25 0.793,0.79303 1.4418,2.52627 1.4418,3.85164 0,2.13289 -0.6103,2.31365 -5.3125,1.5733 -2.9218,-0.46005 -10.9375,-2.73151 -17.8125,-5.04767 -16.3977,-5.52438 -29.4197,-5.97185 -42.6669,-1.46619 -4.8925,1.66405 -10.0792,3.65909 -11.5261,4.4334 -5.8593,3.13584 -19.4517,16.53692 -22.904,22.58171 -2.0245,3.54466 -8.2268,10.76391 -13.7831,16.04276 -17.7937,16.90549 -21.3836,20.53063 -37.27411,37.63924 -27.77606,29.90535 -40.43693,43.18673 -42.1956,44.2636 -0.94754,0.58021 -4.98069,5.50255 -8.96256,10.93854 -6.7939,9.27492 -7.29292,10.44167 -8.10267,18.94509 -0.47458,4.9838 -1.67127,12.60788 -2.65928,16.9424 -2.36293,10.3663 -15.82545,36.32138 -20.54984,39.61906 -1.96988,1.375 -5.65543,5.3125 -8.19011,8.75 -2.53468,3.4375 -5.62823,7.09375 -6.87455,8.125 -3.76133,3.11224 -6.54982,16.72692 -5.57013,27.19591 0.70976,7.58444 0.44626,9.94006 -1.60795,14.37496 -3.96013,8.5497 -4.17575,9.862 -2.1326,12.9803 2.51066,3.8317 -0.039,3.9423 -3.14474,0.1363 -2.18213,-2.6742 -2.34007,-2.6965 -3.2118,-0.4551 -0.50423,1.2966 -0.4054,3.0672 0.21964,3.9347 6.18661,8.5867 9.28809,13.473 8.83764,13.9234 -0.29765,0.2977 -1.77955,-1.0353 -3.29311,-2.9621 -1.51355,-1.9269 -6.49955,-7.6229 -11.08,-12.6579 -4.58045,-5.0349 -10.57809,-13.1339 -13.32809,-17.9977 -5.25758,-9.29888 -6.9752,-10.48364 -8.3129,-5.73405 -2.41006,8.55715 -1.23439,13.63165 5.8129,25.08955 3.78125,6.1477 6.875,11.4977 6.875,11.8888 0,0.3911 0.93092,1.7397 2.06874,2.997 1.93011,2.1328 1.90916,2.4666 -0.3125,4.9822 -2.36081,2.6731 -2.35712,2.6902 0.43126,1.992 3.26382,-0.8172 3.99876,2.089 0.83526,3.303 -2.85459,1.0954 -4.27276,0.9357 -4.27276,-0.4812 0,-1.6536 -20.12455,-28.7063 -23.71933,-31.8851 -1.55496,-1.375 -5.31323,-5.9765 -8.35173,-10.2257 -7.53593,-10.53852 -9.1509,-18.28243 -6.28716,-30.14731 2.51877,-10.43564 2.72076,-16.52321 0.54572,-16.44775 -1.66214,0.0576 -6.04914,2.62832 -17.6853,10.36299 -3.9652,2.63571 -7.36459,4.60446 -7.55419,4.375 -0.1896,-0.22946 -1.12733,-2.94845 -2.08386,-6.0422 l -1.73915,-5.625 -7.5,0.3907 c -6.96475,0.36283 -8.4209,1.01849 -20.40379,9.18718 -7.09708,4.83805 -16.37833,10.20263 -20.625,11.9213 -9.34417,3.78166 -10.52799,4.6945 -12.63838,9.74538 -1.14647,2.74388 -4.83215,6.03252 -12.11528,10.81011 -9.22503,6.0515 -28.24685,16.0703 -30.51115,16.0703 -0.45252,0 -3.22766,2.1169 -6.16699,4.7042 -7.21383,6.3499 -25.54478,18.5806 -32.37855,21.6035 -7.02295,3.1065 -9.53586,2.2326 -9.53586,-3.3164 0,-2.3327 -0.5879,-4.2413 -1.30645,-4.2413 -0.71855,0 -5.59004,2.8906 -10.82553,6.4234 -10.07885,6.8012 -27.22697,15.2105 -33.49302,16.4248 -2.0625,0.3997 -4.64785,1.0744 -5.74523,1.4992 -1.26946,0.4915 -2.67555,-0.2521 -3.86553,-2.0443 z m 269.11419,-81.35933 c 2.16844,-6.06097 6.43524,-28.54673 5.57932,-29.40267 -1.252,-1.25198 -8.12211,3.82598 -11.2156,8.28988 -5.92832,8.55457 -7.10921,17.28646 -3.20402,23.69176 3.40764,5.58925 6.21046,4.77158 8.8403,-2.57897 z m -264.08642,-3.51825 c 2.83856,-2.64453 2.6441,-4.92549 -0.4199,-4.92549 -1.68231,0 -5.62211,4.57471 -5.62211,6.52814 0,1.83856 3.28301,0.96775 6.04201,-1.60265 z m 147.08299,-44.30049 c 0,-3.13641 -4.5797,-4.01568 -6.82494,-1.31033 -0.8834,1.06443 -2.6291,1.93533 -3.87935,1.93533 -1.25023,0 -2.63911,0.59211 -3.08637,1.3158 -0.54315,0.87884 1.61165,1.19016 6.48872,0.9375 6.3425,-0.3286 7.30194,-0.70679 7.30194,-2.8783 z m 9.76571,-19.84019 c 0.362,-0.94335 1.05095,-4.33444 1.53101,-7.53572 0.86759,-5.78549 0.9002,-5.81845 5.41307,-5.47232 4.21773,0.32349 4.73201,-0.0317 7.24053,-5.00151 3.04325,-6.02912 5.02159,-17.42835 3.32002,-19.12992 -2.20617,-2.20617 -12.12777,-2.6978 -14.75374,-0.73108 -2.35759,1.76571 -2.37429,1.98053 -0.32958,4.23991 1.6166,1.78632 1.79717,2.73664 0.72389,3.80992 -1.07327,1.07327 -1.01931,1.92476 0.21635,3.41363 1.41248,1.70194 0.95427,2.69242 -3.22606,6.97345 -2.6798,2.74437 -4.87885,5.94448 -4.88679,7.11135 -0.0186,2.74378 -4.44669,3.60975 -6.19965,1.21244 -2.08109,-2.84606 -8.4496,-3.79959 -11.3266,-1.69589 -2.40912,1.7616 -2.39375,1.83278 0.70055,3.24263 1.74005,0.79283 3.70319,2.6704 4.36252,4.1724 1.25244,2.85318 5.59862,3.41292 11.51127,1.48255 2.43404,-0.79467 2.8125,-0.4781 2.8125,2.35256 0,3.46954 1.7872,4.43129 2.89071,1.5556 z m -132.89071,-3.34249 c 3.09375,-0.66558 11.19708,-2.35227 18.00737,-3.74818 13.36698,-2.73985 18.92158,-4.83947 12.97928,-4.90613 -3.36691,-0.0377 -31.58598,5.84647 -44.73665,9.32848 l -6.875,1.82036 7.5,-0.64219 c 4.125,-0.3532 10.03125,-1.18675 13.125,-1.85234 z m 303.125,-1.19232 c 0.4249,-0.6875 0.17685,-1.25 -0.55122,-1.25 -0.72808,0 -1.32378,0.5625 -1.32378,1.25 0,0.6875 0.24805,1.25 0.55122,1.25 0.30318,0 0.89888,-0.5625 1.32378,-1.25 z m -3.05535,-6.90364 c 6.54343,-4.793 13.2944,-14.34636 10.138,-14.34636 -1.738,0 -17.7113,15.82969 -16.84623,16.69476 1.29045,1.29044 2.15244,0.98868 6.70823,-2.3484 z m -53.81965,-0.7439 c 0,-0.6875 -0.5625,-0.90236 -1.25,-0.47746 -0.6875,0.4249 -1.25,1.33504 -1.25,2.02254 0,0.6875 0.5625,0.90236 1.25,0.47746 0.6875,-0.4249 1.25,-1.33504 1.25,-2.02254 z m -6.3071,-19.15866 c 0.82445,-0.9934 1.3152,-3.10277 1.09055,-4.6875 -0.57795,-4.077 -4.8417,-3.73075 -7.23553,0.58757 -1.70612,3.07779 -1.71152,3.60412 -0.0479,4.66837 2.64121,1.68965 4.4572,1.52296 6.1929,-0.56844 z m 11.29482,-7.55401 c 1.24609,-1.50144 1.17392,-2.00216 -0.37427,-2.59625 -2.1749,-0.83459 -7.11345,1.42204 -7.11345,3.25044 0,1.90741 5.78096,1.40233 7.48772,-0.65419 z M 760.2199,867.46255 c 3.80093,-2.77929 1.07383,-4.56462 -6.97255,-4.56462 -9.06445,0 -24.85451,2.47 -24.85451,3.88792 0,0.56186 5.48437,1.20544 12.1875,1.4302 6.70312,0.22477 13.34561,0.52638 14.76109,0.67027 1.41547,0.14389 3.61079,-0.4968 4.87847,-1.42377 z m 256.9229,-125.77064 c 0,-1.62749 -4.2358,-3.79398 -7.4178,-3.79398 -1.7488,0 -2.5822,0.80681 -2.5822,2.5 0,2.08334 0.8334,2.5 5,2.5 2.75,0 5,-0.54271 5,-1.20602 z M 909.26823,713.63355 c 0.64183,-1.13288 3.90766,-1.9605 9.12461,-2.31233 7.55594,-0.50958 8.125,-0.75507 8.125,-3.5051 0,-3.08748 -0.30995,-3.15898 -15.51684,-3.57904 -1.65926,-0.0459 -4.92579,-1.20964 -7.25895,-2.58624 -5.42096,-3.19845 -5.78311,-3.15186 -4.83591,0.62209 1.05846,4.21725 -1.05156,4.00889 -6.32927,-0.625 -5.56414,-4.88537 -8.51978,-5.0111 -7.34715,-0.3125 1.26485,5.06808 3.84668,7.33289 10.4132,9.13455 3.23121,0.88655 6.32475,2.35801 6.87453,3.26993 1.31895,2.1877 5.48829,2.12201 6.75078,-0.10638 z m 71.5839,-1.33546 c 1.90772,-1.17904 1.56961,-2.77566 -0.77862,-3.67676 -1.97182,-0.75666 -7.93067,3.494 -7.93067,5.65724 0,0.94692 6.28521,-0.48232 8.70929,-1.98048 z m -67.45929,-13.15016 c 0,-1.38889 -0.83334,-2.5 -1.875,-2.5 -1.90301,0 -2.56408,2.64425 -1.04166,4.16666 1.58473,1.58474 2.91666,0.82364 2.91666,-1.66666 z m 139.66636,-15.3125 c 2.537,-3.24246 2.6782,-7.18273 0.3031,-8.45386 -1.2678,-0.6785 -2.8901,-1.23364 -3.6052,-1.23364 -1.2446,0 -5.7309,7.3857 -4.8939,8.05681 1.0904,0.8744 5.4987,3.12173 6.1891,3.15518 0.4314,0.0209 1.3346,-0.66512 2.0069,-1.52449 z m 9.0836,-4.6875 c 0,-0.6875 -0.248,-1.25 -0.5512,-1.25 -0.3032,0 -0.8989,0.5625 -1.3238,1.25 -0.4249,0.6875 -0.1768,1.25 0.5513,1.25 0.728,0 1.3237,-0.5625 1.3237,-1.25 z M 827.14284,635.55098 c 0,-0.60331 -0.84375,-1.79719 -1.875,-2.65305 -1.03125,-0.85586 -1.875,-2.05884 -1.875,-2.67328 0,-1.56395 6.24627,-4.13357 19.375,-7.97061 13.57765,-3.96824 19.375,-6.38767 19.375,-8.08588 0,-0.69863 -1.11828,-1.27023 -2.48505,-1.27023 -3.2042,0 -24.97121,6.96514 -33.3839,10.68238 -3.8289,1.69183 -7.67631,2.57553 -9.375,2.15331 -2.35397,-0.5851 -1.85197,0.33821 2.74395,5.04686 5.54428,5.68025 7.5,6.92422 7.5,4.7705 z m -18.75,-17.45931 c 0,-1.65803 -4.9218,-5.68862 -5.83334,-4.77708 -0.4499,0.44991 0.20323,1.94646 1.4514,3.32568 2.35839,2.60599 4.38194,3.27622 4.38194,1.4514 z m 2.19573,-13.26761 c 6.69859,-1.00314 19.21052,-2.08726 27.80427,-2.40913 8.59375,-0.32189 17.20849,-1.18865 19.14387,-1.92613 1.93538,-0.73748 5.906,-1.34087 8.82359,-1.34087 2.91759,0 6.3966,-0.83306 7.73113,-1.85125 3.87253,-2.95457 0.0926,-4.68429 -8.19859,-3.75166 -3.78125,0.42533 -11.375,1.24496 -16.875,1.82137 -14.66333,1.53678 -39.13923,4.81448 -46.79876,6.26708 -3.6671,0.69545 -6.87194,1.26446 -7.12185,1.26446 -0.24992,0 -0.45439,0.84375 -0.45439,1.875 0,2.31312 0.82316,2.31576 15.94573,0.0511 z m -44.93093,-17.25298 c 0.28569,-1.48348 -0.38058,-2.17315 -2.09938,-2.17315 -2.86668,0 -4.45422,1.86694 -3.24765,3.81921 1.21659,1.96849 4.86737,0.84461 5.34703,-1.64606 z m 8.7275,-5.52822 c -0.26744,-1.53272 1.14249,-2.54968 5.18539,-3.74019 7.34111,-2.16174 8.89506,-3.80805 5.7709,-6.11389 -2.92815,-2.16116 -11.74778,-2.32588 -18.36607,-0.34299 -5.64337,1.69079 -5.99127,2.62289 -1.70752,4.5747 1.71875,0.78312 3.125,2.46715 3.125,3.7423 0,2.93788 1.05461,3.98514 4.01313,3.98514 1.51179,0 2.21581,-0.7488 1.97917,-2.10507 z m 22.1327,-4.14493 c 0,-2.1925 -5.3401,-3.2849 -7.16025,-1.46475 -1.99226,1.99226 0.22527,4.14229 3.8408,3.72389 1.94656,-0.22527 3.31945,-1.15962 3.31945,-2.25914 z m -25.625,-52.5 c 0,-2.16666 -0.83334,-2.5 -6.25,-2.5 -3.4375,0 -6.25,0.26329 -6.25,0.58508 0,1.18101 6.95857,4.31631 9.6875,4.36487 1.99585,0.0355 2.8125,-0.67586 2.8125,-2.44995 z m -78.75,-1.0618 c 0,-1.55185 -21.26019,-15.59468 -22.19475,-14.66011 -1.07715,1.07713 2.62717,4.46656 11.56975,10.5862 7.27484,4.97836 10.625,6.2629 10.625,4.07391 z m 197.5,515.27577 c 0,-1.9997 -1.7126,-5.1816 -4.375,-8.1286 -4.31746,-4.7789 -5.44893,-7.3354 -3.24655,-7.3354 0.62065,0 3.16552,3.069 5.65527,6.82 2.48975,3.7509 5.07569,7.1591 5.74654,7.5737 2.17501,1.3443 1.2898,4.3563 -1.28026,4.3563 -1.866,0 -2.5,-0.8333 -2.5,-3.286 z M 484.0109,375.39027 c -1.24817,-1.37922 -2.03847,-2.73038 -1.75623,-3.00258 0.28225,-0.2722 1.52381,0.85625 2.75902,2.50766 2.72799,3.64715 2.12104,3.9467 -1.00279,0.49492 z m 403.76655,748.77323 c -0.41961,-0.679 1.47253,-2.1289 4.20476,-3.2221 5.64954,-2.2605 7.4105,-4.9904 3.82413,-5.9283 -3.13933,-0.8209 -3.0925,-2.9812 0.0865,-3.9902 1.84916,-0.5869 2.5,-1.8913 2.5,-5.0104 0,-4.8991 -0.16744,-5.0436 -7.1875,-6.2052 -4.73782,-0.784 -5.3125,-0.6148 -5.3125,1.5641 0,1.3437 -1.21211,5.3598 -2.69358,8.9246 -2.46125,5.9224 -3.00931,6.4489 -6.35446,6.1042 -3.20182,-0.33 -3.96131,-1.2334 -6.05644,-7.2043 -1.31753,-3.7548 -2.39552,-7.833 -2.39552,-9.0625 0,-2.9224 -1.0907,-2.8209 -4.54334,0.4227 -2.74739,2.581 -7.71291,2.4812 -6.1036,-0.1227 3.29764,-5.3356 0.88871,-43.4302 -3.26677,-51.6605 -4.09864,-8.1177 -17.94664,-27.5401 -25.34053,-35.5411 -12.94467,-14.00767 -16.95049,-27.54121 -12.78435,-43.19164 2.55866,-9.61182 1.8405,-11.48271 -3.39579,-8.84636 -2.16733,1.09122 -5.62812,3.51618 -7.69062,5.38882 -4.00089,3.63259 -12.49429,8.81531 -14.44645,8.81531 -0.6482,0 -1.17855,-1.33594 -1.17855,-2.96875 0,-1.63281 -0.33276,-4.63258 -0.73948,-6.66614 -0.72495,-3.62475 -0.88117,-3.6921 -7.95372,-3.42865 -6.61328,0.24634 -8.18856,0.9318 -18.91028,8.22863 -6.43281,4.37795 -15.64915,9.66481 -20.48072,11.74858 -7.36725,3.17737 -9.24666,4.62614 -11.64776,8.97887 -2.0658,3.74488 -5.86735,7.18915 -13.65178,12.36873 -5.93379,3.9482 -12.52179,7.7827 -14.63999,8.5211 -2.1182,0.7385 -5.88642,2.6083 -8.37381,4.1551 -2.4874,1.5469 -5.16722,2.8125 -5.95516,2.8125 -0.78794,0 -4.54179,2.5325 -8.34188,5.6277 -8.96032,7.2983 -27.58486,19.7114 -32.60856,21.7333 -2.16046,0.8696 -5.53546,1.3972 -7.5,1.1725 -2.95752,-0.3382 -3.67936,-1.1107 -4.19686,-4.4911 l -0.625,-4.0827 -8.70825,5.8531 c -11.37579,7.6461 -27.47508,15.131 -36.40065,16.9235 -6.29701,1.2647 -7.30057,1.1834 -8.67975,-0.7027 -1.36034,-1.8604 -2.54196,-1.9745 -9.2534,-0.8937 -9.4539,1.5225 -11.33295,0.8876 -11.33295,-3.8294 0,-2.9645 2.85903,-6.7327 14.83579,-19.5538 8.15969,-8.7349 16.03469,-16.9532 17.5,-18.2629 1.46531,-1.3097 2.66421,-2.8566 2.66421,-3.4375 0,-2.8632 -7.63207,-0.043 -28.79541,10.6415 -17.66313,8.9171 -24.85944,11.9085 -30.27653,12.5853 -7.80446,0.9751 -13.72131,-0.8632 -14.41775,-4.4795 -0.23682,-1.2297 4.89254,-7.5894 12.79723,-15.8666 7.25585,-7.5978 13.19246,-14.6856 13.19246,-15.7506 0,-1.5732 -1.69979,-1.9308 -9.0625,-1.9065 -4.98438,0.016 -11.3125,0.5514 -14.0625,1.189 -5.74195,1.3313 -15.45733,-0.5774 -16.47803,-3.23735 -0.84174,-2.19357 3.77747,-9.56462 8.46634,-13.51006 2.04856,-1.72375 6.54201,-4.54916 9.98544,-6.2787 8.42335,-4.2308 22.40125,-14.30476 22.40125,-16.14471 0,-0.81539 -4.32353,-3.09035 -9.60784,-5.05549 -9.51355,-3.53791 -9.72849,-3.55835 -21.90391,-2.08271 -12.78452,1.54946 -17.23825,1.09527 -17.23825,-1.75796 0,-2.50682 6.11427,-7.14833 13.80654,-10.48092 10.42224,-4.51531 10.54023,-4.59907 10.98681,-7.79863 0.23009,-1.64854 0.93321,-3.53171 1.5625,-4.18484 1.96925,-2.04386 1.28474,-3.09521 -3.24842,-4.98929 -8.50248,-3.55256 -6.75249,-8.43029 3.58046,-9.97981 2.92882,-0.43921 6.24606,-1.87411 7.37162,-3.18867 1.12557,-1.31455 5.032,-3.2824 8.68098,-4.37298 11.0837,-3.3126 72.21096,-13.30254 92.60675,-15.13457 13.73746,-1.23397 14.0518,-2.8789 0.90276,-4.7242 -16.63698,-2.33479 -44.99568,-7.66209 -54.75354,-10.28569 -15.13517,-4.0694 -31.49646,-10.5051 -31.49646,-12.38913 0,-0.81713 1.18791,-2.55725 2.63981,-3.86692 2.27363,-2.05093 4.3977,-2.34789 15.3125,-2.14082 6.96998,0.13223 21.67269,1.38957 32.67269,2.79409 34.37185,4.38871 60.93599,5.61613 85,3.92748 26.02456,-1.82623 26.875,-1.9861 26.875,-5.05205 0,-2.82108 6.34642,-5.0169 14.53196,-5.02797 6.14095,-0.009 19.21804,-5.47029 19.21804,-8.02692 0,-0.99081 0.94376,-2.74524 2.09724,-3.89873 1.63446,-1.63445 1.78531,-2.55058 0.68364,-4.15177 -0.77749,-1.13 -3.47946,-6.14013 -6.00437,-11.1336 -3.85246,-7.61895 -4.46258,-9.88049 -3.79385,-14.0625 0.60803,-3.80241 0.3853,-4.98345 -0.93984,-4.98345 -2.13382,0 -4.12537,2.32931 -4.72081,5.52141 -0.65591,3.51631 -3.13642,3.78701 -5.69964,0.62201 -1.23606,-1.52623 -4.93882,-5.81046 -8.22837,-9.52047 -3.28956,-3.71003 -6.32125,-8.44669 -6.73709,-10.52591 -0.63872,-3.19362 -1.20216,-3.66847 -3.6299,-3.05914 -1.58059,0.3967 -3.23042,0.14424 -3.66631,-0.56104 -0.43589,-0.70527 -3.78061,-3.48975 -7.43274,-6.18774 -7.85972,-5.80632 -11.92796,-13.17321 -11.92796,-21.59955 0,-6.79302 -2.11007,-8.10947 -9.64458,-6.01715 -8.10462,2.25066 -10.256,1.67308 -16.41827,-4.40775 -3.19669,-3.15442 -7.31109,-6.62238 -9.14314,-7.70658 -3.73181,-2.20848 -6.04401,-6.40754 -6.04401,-10.97623 0,-2.20772 -1.40401,-3.93681 -5.08192,-6.25857 -2.79506,-1.76444 -6.21821,-5.13394 -7.607,-7.48777 -1.38879,-2.35383 -5.33644,-6.34342 -8.77254,-8.86575 l -6.24747,-4.58606 0.41697,-7.58135 c 0.41311,-7.51129 0.38231,-7.58996 -3.33304,-8.51407 -2.0625,-0.51302 -6.45281,-1.27685 -9.75625,-1.69742 -6.38139,-0.81243 -8.29221,-2.38393 -22.43125,-18.44785 -6.80603,-7.7326 -7.6012,-12.28102 -3.34964,-19.16018 1.42333,-2.30299 2.23853,-4.75249 1.81155,-5.44334 -0.42696,-0.69084 -4.67514,-2.44033 -9.44039,-3.88773 -11.1934,-3.39988 -14.30449,-5.97975 -16.85883,-13.98012 -1.1496,-3.60065 -4.07513,-9.83888 -6.50114,-13.86271 -3.32209,-5.51008 -4.38445,-8.63592 -4.30363,-12.66278 0.12995,-6.47409 -1.54142,-8.22316 -11.36476,-11.89312 -8.03291,-3.00107 -10.53329,-5.72953 -17.75817,-19.37804 -4.1248,-7.79215 -4.55314,-9.44824 -3.91288,-15.12846 1.01234,-8.98114 -1.43914,-11.1268 -11.40769,-9.98457 -18.28931,2.09564 -22.99685,2.2313 -26.5375,0.76472 -4.61571,-1.91189 -27.42492,-25.24887 -32.50101,-33.25302 -4.12582,-6.50575 -4.96135,-13.01486 -1.98744,-15.48298 1.00429,-0.83349 4.14662,-1.82669 6.98296,-2.20713 2.83632,-0.38042 5.43033,-1.40409 5.76446,-2.2748 1.2874,-3.3549 -3.69468,-9.4065 -13.67647,-16.61245 -12.81092,-9.24835 -33.39692,-31.34207 -33.39692,-35.84294 0,-3.9745 2.95791,-4.06031 13.21176,-0.38327 7.2891,2.61389 11.78824,2.54485 11.78824,-0.18087 0,-0.70908 -2.72872,-1.28923 -6.06382,-1.28923 -4.01275,0 -7.98676,-1.02243 -11.74878,-3.02273 -7.09794,-3.774 -22.03212,-14.76903 -31.00415,-22.82627 -3.74454,-3.36274 -11.5895,-10.02119 -17.43325,-14.79654 -10.6952,-8.73982 -12.44573,-10.44633 -12.48086,-12.16696 -0.0396,-1.93989 3.50561,-0.72135 17.30801,5.94897 14.59579,7.05377 16.42285,7.68978 16.42285,5.71692 0,-0.63064 -2.67188,-2.12938 -5.9375,-3.33053 -3.26563,-1.20115 -7.34375,-3.41916 -9.0625,-4.92891 -1.71875,-1.50976 -6.08689,-4.32394 -9.70697,-6.25374 -3.62009,-1.92981 -8.68259,-5.30294 -11.25,-7.49585 -2.56742,-2.19291 -7.19928,-5.26947 -10.29303,-6.8368 -3.09375,-1.56732 -7.875,-4.36652 -10.625,-6.22043 -9.22372,-6.21819 -28.05752,-16.28713 -30.46484,-16.28713 -1.31076,0 -3.71114,-1.16504 -5.33418,-2.58899 l -2.95098,-2.58898 6.40029,0.63588 c 10.28056,1.02139 24.40961,7.07607 74.84971,32.07509 26.125,12.94801 49.12021,23.9419 51.10048,24.43084 4.81519,1.18891 3.93102,-1.9365 -1.19278,-4.2163 -6.90398,-3.07187 -20.55113,-12.38703 -22.88356,-15.61967 -0.94923,-1.31557 -3.48048,-3.13721 -5.625,-4.04808 -2.14453,-0.91087 -5.83655,-3.10145 -8.20449,-4.86796 -2.36794,-1.76651 -4.97094,-3.21183 -5.78444,-3.21183 -0.81351,0 -2.2511,-0.93517 -3.19466,-2.07814 -0.94355,-1.14298 -4.07763,-3.12543 -6.9646,-4.40543 -2.88697,-1.28 -6.44048,-4.0005 -7.89668,-6.04554 -1.8939,-2.65973 -4.05944,-3.94403 -7.6068,-4.51127 -5.80366,-0.92804 -10.41827,-4.222 -13.05329,-9.31757 -1.21761,-2.35459 -4.62498,-5.02086 -9.66253,-7.56093 -4.5116,-2.27488 -11.72127,-7.7067 -17.15665,-12.92595 -5.15625,-4.95122 -13.98244,-12.4679 -19.61375,-16.70373 -10.58132,-7.95919 -12.84571,-10.20144 -10.30215,-10.20144 4.40863,0 22.77848,11.0732 64.15551,38.67244 46.78995,31.20976 101.42504,63.66291 103.56844,61.51951 1.5153,-1.5153 -0.22357,-5.06205 -3.26761,-6.66491 -7.14428,-3.76188 -23.42567,-15.19407 -24.50129,-17.20388 -0.66891,-1.24989 -3.45392,-3.16788 -6.18891,-4.26221 -2.73499,-1.09432 -6.20615,-3.658 -7.7137,-5.69707 -1.50755,-2.03907 -4.31491,-4.35934 -6.23859,-5.15615 -1.92368,-0.79681 -5.96161,-4.0664 -8.9732,-7.26574 -3.01159,-3.19934 -8.99545,-8.32022 -13.29749,-11.37973 -4.30202,-3.05951 -8.6092,-7.08528 -9.5715,-8.94615 -0.96229,-1.86086 -3.87162,-4.42013 -6.46519,-5.68725 -2.90017,-1.41692 -5.47826,-3.92869 -6.69668,-6.52443 -1.08962,-2.32131 -3.1552,-4.85256 -4.59019,-5.625 -2.96374,-1.59535 -15.3037,-15.33855 -15.3037,-17.04397 0,-0.61549 -2.39063,-3.61669 -5.3125,-6.66935 -11.84674,-12.37701 -25.33745,-27.25496 -25.72917,-28.37487 -0.92989,-2.65853 2.93167,-0.89234 8.9932,4.1133 3.53291,2.9175 16.3089,14.87063 28.39109,26.5625 12.08219,11.69188 27.26969,26.09966 33.75,32.01729 26.47384,24.17515 91.8577,73.33201 94.29609,70.89362 0.43745,-0.43745 -18.12291,-17.40125 -32.90195,-30.07172 -4.59896,-3.94282 -9.33364,-8.16157 -10.52149,-9.375 -3.49489,-3.57016 -11.04917,-11.16827 -13.27777,-13.35481 -6.39636,-6.27567 -13.45633,-13.88002 -16.30759,-17.56509 -1.7902,-2.3137 -7.55331,-9.17464 -12.80691,-15.24653 -8.425,-9.73726 -27.60965,-34.36153 -30.3668,-38.97701 -4.31423,-7.22202 15.75341,12.41944 36.84469,36.06221 34.10462,38.2304 59.23355,62.56575 90.37291,87.5189 19.27905,15.44904 39.04799,29.1155 41.1182,28.42544 0.76943,-0.25648 -3.0294,-4.652 -8.44185,-9.76784 -22.69243,-21.44879 -37.37796,-38.46928 -45.6789,-52.94171 -7.26165,-12.66043 -4.17392,-10.72871 8.5029,5.31952 14.89248,18.85313 36.54162,43.69137 46.69794,53.57691 14.61194,14.22238 26.41523,22.53425 51.8322,36.50024 13.01889,7.15355 30.81725,17.13793 39.5519,22.1875 8.73465,5.04956 16.29776,9.18104 16.80692,9.18104 3.73885,0 66.23483,37.76055 88.90344,53.71614 12.03895,8.47377 26.46959,17.46693 28.09595,17.50939 0.51563,0.0135 0.9375,-1.26875 0.9375,-2.84937 0,-2.79311 -2.47872,-7.05132 -11.0056,-18.90661 -3.11892,-4.33637 -4.87654,-9.03124 -7.17618,-19.16875 -1.67507,-7.38419 -3.05067,-14.37828 -3.05689,-15.54243 -0.015,-2.8152 4.72262,-6.00837 8.91457,-6.00837 7.82213,0 7.5322,-1.12404 -3.05386,-11.83996 -5.63588,-5.705 -11.54898,-11.0391 -13.14025,-11.85357 -2.32718,-1.19111 -2.60291,-1.8306 -1.40944,-3.26865 2.37441,-2.86098 14.32183,-2.1649 33.67765,1.96218 18.36292,3.91536 23.75,4.51087 23.75,2.62542 0,-1.79882 -12.83142,-13.02748 -22.1056,-19.34441 -28.4314,-19.36547 -43.9923,-31.00465 -44.07701,-32.96851 -0.10438,-2.41974 7.03423,-1.89933 20.37795,1.48559 15.86734,4.02507 28.8551,9.69622 68.7439,30.01721 30.9781,15.78152 40.81076,19.56545 40.81076,15.7053 0,-0.67618 -5.43209,-5.8793 -12.0713,-11.5625 -36.38576,-31.14643 -50.75604,-46.01805 -64.51665,-66.76756 -4.62663,-6.97645 -8.41205,-13.2444 -8.41205,-13.92876 0,-2.03752 3.34245,-2.70415 7.53281,-1.50237 11.11434,3.18755 26.10532,13.54627 60.59219,41.86898 38.65585,31.74655 59.57534,48.12161 61.47632,48.12161 3.73983,0 0.36118,-6.63694 -8.13162,-15.97356 -30.65175,-33.69725 -49.16669,-59.35784 -60.62778,-84.02644 -2.0762,-4.46875 -5.64622,-11.08905 -7.93341,-14.71177 -4.75957,-7.5388 -4.95688,-8.46439 -2.04285,-9.58261 3.36094,-1.28971 16.49974,5.93495 26.71293,14.6887 10.04587,8.61035 16.25752,15.4264 39.51114,43.35568 16.67674,20.02999 21.66386,25.19018 21.65391,22.40539 -0.004,-0.97921 -2.83185,-6.56164 -6.28522,-12.40539 -6.10411,-10.32929 -17.23973,-32.46573 -29.33155,-58.308 -8.37775,-17.90469 -6.36132,-19.87543 8.35374,-8.16442 22.83299,18.17168 49.06029,54.28231 87.29208,120.18668 2.97978,5.1366 5.63463,8.68875 5.89966,7.89368 0.26503,-0.79507 -0.66851,-5.30833 -2.07452,-10.02947 -5.26693,-17.68536 -6.68093,-28.68901 -5.89561,-45.87943 0.53913,-11.80127 1.23705,-16.67403 2.58064,-18.01763 1.44277,-1.44275 2.2301,-1.51929 3.63499,-0.35334 2.48426,2.06177 9.4643,21.30705 18.19676,50.17193 10.21749,33.77355 10.61645,35.25999 16.36496,60.97124 5.96358,26.67316 6.06692,26.98169 11.67779,34.86865 2.3614,3.31931 5.4993,8.42996 6.9732,11.35699 3.5109,6.97227 6.7586,25.48745 5.8636,33.42812 -0.3874,3.4375 -0.094,9.75944 0.6516,14.04876 1.1725,6.74273 1.0183,8.94314 -1.1382,16.25 -3.3641,11.39805 -5.3645,23.02531 -5.6478,32.82624 l -0.2348,8.125 17.5,0.0406 c 15.9646,0.0371 18.1861,0.32616 25.3187,3.29467 4.3002,1.78971 11.6127,5.66098 16.25,8.6028 4.6372,2.94183 9.7163,6.1255 11.2869,7.07484 1.5705,0.94934 4.8649,4.52289 7.3207,7.94124 2.5187,3.50585 7.3522,7.97643 11.088,10.25548 3.6425,2.22217 11.3765,8.07874 17.1867,13.0146 14.5174,12.33295 22.174,24.40534 22.174,34.96227 0,4.13332 -0.074,4.18847 -5.6481,4.18847 -3.1064,0 -11.6846,-1.91245 -19.0625,-4.24989 -19.394,-6.14434 -29.5742,-6.5908 -44.4261,-1.94837 -10.1681,3.17835 -12.7029,4.59852 -21.0072,11.7693 -5.194,4.48512 -10.1218,9.64302 -10.9506,11.46199 -2.8192,6.18738 -12.9294,17.85723 -21.8971,25.27513 -4.9187,4.06858 -15.9609,15.1866 -24.53822,24.70673 -15.39772,17.0902 -38.84158,42.08412 -49.66072,52.94418 -10.24883,10.28763 -13.02745,15.48908 -14.29898,26.76712 -1.46762,13.01722 -4.86472,24.30506 -10.39002,34.52381 -2.41626,4.46875 -6.10902,11.70204 -8.20613,16.07396 -2.24257,4.67515 -4.79055,8.20461 -6.18667,8.5697 -3.47066,0.9076 -16.44538,18.70816 -18.93763,25.98134 -1.62612,4.74547 -1.96694,8.54981 -1.41587,15.80372 0.61988,8.15964 0.30874,10.55998 -2.13226,16.44938 l -2.85805,6.8955 8.53643,11.6757 c 4.69503,6.4217 12.1739,16.457 16.6197,22.3007 4.4458,5.8438 8.89906,12.5938 9.89615,15 0.99708,2.4063 2.64492,5.312 3.66188,6.4573 2.63924,2.9722 1.6605,18.9446 -1.97878,32.2927 -3.02974,11.1124 -7.72075,17.8057 -15.36962,21.93 -3.86036,2.0815 -10.48403,2.4155 -11.61496,0.5856 z m 8.59608,-32.988 c 0.97032,-2.3223 2.38412,-4.6055 3.14177,-5.0737 1.56746,-0.9688 1.90631,-9.4539 0.37754,-9.4539 -2.25856,0 -4,3.2701 -4,7.5111 0,2.4811 -0.82586,5.603 -1.83525,6.9375 -2.1616,2.8579 -2.39031,4.3014 -0.68153,4.3014 0.67828,0 2.02713,-1.9001 2.99747,-4.2224 z m -5.71734,-31.7284 c 0.2136,-1.4465 -0.46885,-4.2876 -1.51655,-6.3136 -3.27453,-6.3323 -20.00323,-28.069 -26.63645,-34.6106 -3.48565,-3.4375 -8.12956,-9.835 -10.31978,-14.2166 -4.12582,-8.25402 -5.43432,-8.59917 -6.70925,-1.7698 -0.56372,3.0197 0.15897,5.7401 2.91853,10.9862 5.05549,9.6106 15.37879,24.3333 23.23859,33.1419 3.61361,4.0499 7.03513,8.1137 7.60338,9.0308 1.66929,2.6941 8.21432,7.3083 9.68209,6.8258 0.7431,-0.2442 1.52585,-1.6276 1.73944,-3.0741 z m -41.4048,-83.43597 c 2.11596,-6.1118 4.04699,-18.15491 3.24577,-20.24281 -0.9048,-2.35788 -5.00126,0.24074 -7.91653,5.02189 -2.72424,4.46783 -3.12703,11.00751 -1.0457,16.978 1.75293,5.0285 3.55948,4.47322 5.71646,-1.75708 z"
         inkscape:connector-curvature="0" />
    </g>
  </g>
</svg>
