<?xml version="1.0" encoding="UTF-8" standalone="no"?>
<!-- Created with Inkscape (http://www.inkscape.org/) -->

<svg
   xmlns:dc="http://purl.org/dc/elements/1.1/"
   xmlns:cc="http://creativecommons.org/ns#"
   xmlns:rdf="http://www.w3.org/1999/02/22-rdf-syntax-ns#"
   xmlns:svg="http://www.w3.org/2000/svg"
   xmlns="http://www.w3.org/2000/svg"
   xmlns:sodipodi="http://sodipodi.sourceforge.net/DTD/sodipodi-0.dtd"
   xmlns:inkscape="http://www.inkscape.org/namespaces/inkscape"
   width="40"
   height="40"
   viewBox="0 0 40 40.000002"
   id="svg2"
   version="1.1"
   inkscape:version="0.91 r13725"
   sodipodi:docname="logo-small.svg"
   inkscape:export-filename="/home/sam/Documents/Projects/ows-community-assets/logo/discourse/site-logo.png"
   inkscape:export-xdpi="180"
   inkscape:export-ydpi="180">
  <defs
     id="defs4" />
  <sodipodi:namedview
     id="base"
     pagecolor="#ffffff"
     bordercolor="#666666"
     borderopacity="1.0"
     inkscape:pageopacity="0.0"
     inkscape:pageshadow="2"
     inkscape:zoom="2.8284271"
     inkscape:cx="132.63976"
     inkscape:cy="8.466249"
     inkscape:document-units="px"
     inkscape:current-layer="g4207"
     showgrid="false"
     fit-margin-top="0"
     fit-margin-left="0"
     fit-margin-right="0"
     fit-margin-bottom="0"
     units="px"
     inkscape:window-width="1916"
     inkscape:window-height="1061"
     inkscape:window-x="0"
     inkscape:window-y="465"
     inkscape:window-maximized="0" />
  <metadata
     id="metadata7">
    <rdf:RDF>
      <cc:Work
         rdf:about="">
        <dc:format>image/svg+xml</dc:format>
        <dc:type
           rdf:resource="http://purl.org/dc/dcmitype/StillImage" />
        <dc:title></dc:title>
      </cc:Work>
    </rdf:RDF>
  </metadata>
  <g
     inkscape:label="Layer 1"
     inkscape:groupmode="layer"
     id="layer1"
     transform="translate(-48.719624,-601.36586)">
    <g
       id="g4207">
      <path
         sodipodi:nodetypes="ccsssssscsssssscsssssssssssssssssssssssssssssssssssssssssssscscscsscssssssssssssssssscsssscssssscsssssssssssssssssssssssccc"
         inkscape:connector-curvature="0"
         id="path4213"
         d="m 51.158408,640.97858 c 0.04248,-0.21237 0.384425,-1.02824 0.759883,-1.81304 0.37546,-0.7848 0.654976,-1.45458 0.621149,-1.48842 -0.03383,-0.0339 -0.409761,0.38188 -0.835409,0.92378 -0.757652,0.96459 -1.680723,1.79711 -1.992577,1.79711 -0.468755,0 -0.275954,-0.44866 1.038608,-2.41685 1.067525,-1.59836 1.090711,-1.70707 0.18754,-0.87948 -0.860516,0.78851 -1.764015,1.31257 -2.064275,1.19735 -0.323423,-0.12412 -0.37009,-0.0624 2.285601,-3.02082 0.458158,-0.51038 0.806296,-0.95469 0.773641,-0.98734 -0.03266,-0.0326 -0.312647,0.0821 -0.622204,0.25521 -0.578144,0.32312 -1.643899,0.46629 -1.727192,0.23201 -0.02378,-0.0668 0.215187,-0.27649 0.531022,-0.46582 0.872203,-0.52286 2.447303,-1.67393 2.447303,-1.78847 0,-0.0558 -0.190327,-0.10137 -0.422949,-0.10137 -0.551481,0 -0.538352,-0.15279 0.03022,-0.35159 1.055334,-0.36903 3.157404,-1.78461 3.168151,-2.13351 0.0022,-0.0707 -0.190529,-0.22142 -0.428238,-0.33478 -0.237709,-0.11338 -0.412352,-0.27297 -0.388094,-0.3547 0.04461,-0.15028 1.723741,-1.04472 3.055879,-1.6278 1.62419,-0.71092 4.814499,-3.41141 4.962561,-4.20065 0.192511,-1.02617 -1.859168,-2.39653 -3.985843,-2.66225 -0.449069,-0.0561 -0.674613,-0.13955 -0.674613,-0.24959 0,-0.1689 1.067128,-0.77359 1.365191,-0.77359 0.09064,0 0.432317,-0.14188 0.759283,-0.31531 0.880488,-0.46701 2.328699,-0.53082 3.799459,-0.1674 1.067212,0.2637 1.112345,0.26537 1.571635,0.0582 0.260077,-0.11731 0.552833,-0.30159 0.650567,-0.40958 0.210354,-0.23245 1.164925,-2.44747 1.463275,-3.39545 0.11504,-0.36554 0.310546,-0.93652 0.434444,-1.26885 0.123899,-0.3323 0.284014,-0.93047 0.355814,-1.32926 0.173304,-0.96255 0.666935,-2.52748 1.010122,-3.20233 0.331195,-0.65127 0.682386,-0.76687 0.897231,-0.29534 0.125428,0.27528 0.172651,0.29763 0.338362,0.1601 0.174317,-0.14467 1.348796,-2.4934 1.730083,-3.45982 0.18139,-0.45976 0.311395,-0.49877 0.409682,-0.12292 0.09909,0.37895 0.185561,0.26419 1.202711,-1.59631 0.48687,-0.89055 0.958054,-1.64347 1.047078,-1.67314 0.289955,-0.0966 0.05532,1.22729 -0.40703,2.29671 -0.235725,0.54522 -0.409939,1.00997 -0.387141,1.03277 0.0228,0.0228 0.309763,-0.27321 0.637699,-0.65778 2.792489,-3.27479 3.464127,-4.02239 3.613676,-4.02239 0.49213,0 -0.186416,1.57547 -1.291527,2.9987 -0.344998,0.44431 -0.68012,0.87581 -0.744713,0.95889 -0.348086,0.4477 0.255656,0.011 1.484865,-1.07417 2.461397,-2.17284 2.898453,-2.46148 2.898453,-1.91429 0,0.33857 -0.508999,1.11809 -1.359555,2.08214 -0.395811,0.44863 -0.683883,0.81569 -0.640159,0.81569 0.04372,0 0.389193,-0.20872 0.76771,-0.46383 1.260395,-0.84944 1.843163,-1.14851 1.977062,-1.01463 0.213937,0.21395 -0.0136,0.62124 -0.831305,1.48805 -0.632239,0.67021 -0.739433,0.83631 -0.539733,0.83631 0.427944,0 0.412681,0.21034 -0.08544,1.17732 -0.334061,0.64849 -0.463372,1.03319 -0.419563,1.24818 0.03483,0.17091 -0.04814,0.65031 -0.184382,1.06531 -0.201987,0.61529 -0.220556,0.79866 -0.1006,0.99346 0.123716,0.20088 0.09462,0.33351 -0.182972,0.83401 -0.243857,0.43966 -0.310858,0.69124 -0.256491,0.96306 0.05588,0.27943 -0.0022,0.47727 -0.241275,0.82231 -0.20755,0.2995 -0.309435,0.59877 -0.298935,0.87806 0.0087,0.23306 -0.042,0.53197 -0.112797,0.66425 -0.260213,0.48622 -0.629289,1.73762 -0.563238,1.90974 0.03744,0.0976 -0.07182,0.47303 -0.242775,0.8344 -0.170955,0.36137 -0.311189,0.73335 -0.311625,0.82664 -4.76e-4,0.0933 -0.108837,0.33274 -0.240888,0.53212 -0.132053,0.1994 -0.240452,0.48847 -0.240889,0.64238 -9.71e-4,0.33365 -0.213927,0.77003 -0.441386,0.90437 -0.08999,0.0532 -0.163622,0.23346 -0.163622,0.40068 0,0.60078 -0.53898,1.24698 -1.044444,1.25222 -0.309895,0.004 -0.423506,0.2458 -0.331219,0.70724 0.03761,0.18802 -0.01501,0.53773 -0.117958,0.78415 -0.226839,0.54291 -0.208029,0.54619 1.088389,0.19053 1.211524,-0.33238 2.454651,-0.28774 2.844532,0.10211 0.230409,0.23039 0.246997,0.31461 0.134315,0.68175 -0.118079,0.38474 -0.100162,0.4461 0.219865,0.7527 0.387528,0.37127 0.426657,0.59796 0.163319,0.94611 -0.227374,0.30061 -0.225914,0.60191 0.0038,0.7926 0.240763,0.19981 0.229239,0.62187 -0.02928,1.07232 -0.200168,0.34877 -0.200168,0.38442 0,0.72327 0.269784,0.45671 0.264949,0.56796 -0.0435,1.00114 -0.192839,0.27082 -0.235336,0.4565 -0.176388,0.77073 0.05485,0.2924 0.01662,0.50711 -0.130221,0.73122 -0.182681,0.2788 -0.263841,0.30832 -0.669509,0.24345 -0.523127,-0.0838 -0.524529,-0.0805 -0.274655,0.63707 0.26444,0.75933 -3.7e-5,1.34629 -0.606619,1.34629 -0.193663,0 -0.359428,0.13201 -0.531085,0.42295 -0.189444,0.32108 -0.330562,0.42338 -0.585936,0.42479 -0.405432,0.002 -0.517404,0.0753 -0.804292,0.52572 -0.206233,0.3237 -0.257969,0.34134 -0.792811,0.27039 -0.479101,-0.0636 -0.607981,-0.0364 -0.792256,0.16729 -0.293118,0.32388 -0.699078,0.30707 -1.109517,-0.046 l -0.336164,-0.28914 -0.202062,0.33225 c -0.321445,0.52859 -0.676612,0.54535 -1.16689,0.055 -0.284734,-0.28472 -0.490571,-0.39727 -0.639906,-0.34987 -0.307959,0.0977 -0.674333,-0.3071 -0.844394,-0.93307 -0.07769,-0.28597 -0.134126,-1.10714 -0.125404,-1.82483 l 0.01586,-1.30487 -0.454972,0.0803 c -0.595761,0.10518 -0.806378,0.32072 -0.824546,0.84386 -0.0204,0.58751 -0.403272,1.07176 -0.885176,1.11955 -0.317186,0.0315 -0.416757,0.11768 -0.565584,0.48962 -0.10673,0.26673 -0.339862,0.54324 -0.569836,0.67584 -0.214065,0.12342 -0.539235,0.4019 -0.722604,0.61881 -0.183366,0.21693 -0.48765,0.42829 -0.676186,0.46969 -0.188535,0.0415 -0.461574,0.23595 -0.606751,0.43231 -0.20708,0.28009 -0.357393,0.35704 -0.697547,0.35704 -0.29582,0 -0.56023,0.10554 -0.832159,0.33231 -0.609727,0.50837 -1.489367,1.02175 -1.6163,0.9433 -0.06247,-0.0386 -0.369775,0.15153 -0.68289,0.42253 -0.505832,0.43779 -0.618221,0.48446 -1.008039,0.4186 -0.381657,-0.0645 -0.48538,-0.0253 -0.797276,0.30011 -0.318448,0.3324 -0.410681,0.36543 -0.824812,0.29546 -0.398275,-0.0673 -0.542426,-0.0241 -0.988488,0.29626 -0.287219,0.20626 -0.604055,0.37503 -0.704079,0.37503 -0.100023,0 -0.296159,-0.18493 -0.435849,-0.41097 -0.204316,-0.33058 -0.469673,-0.55578 -0.654911,-0.55578 -0.01293,0 -0.0046,0.20392 0.01843,0.45316 0.03804,0.4108 -0.0089,0.49552 -0.503192,0.90632 -0.65572,0.54506 -0.922069,0.58195 -0.922069,0.12765 0,-0.29975 -0.06455,-0.25672 -0.815858,0.54379 -0.903225,0.96239 -1.32119,1.13188 -1.191443,0.48314 z"
         style="fill:#121415;fill-opacity:1" />
    </g>
  </g>
</svg>
